<?xml version="1.0" standalone="no"?>
<!DOCTYPE svg PUBLIC "-//W3C//DTD SVG 20010904//EN"
 "http://www.w3.org/TR/2001/REC-SVG-20010904/DTD/svg10.dtd">
<svg version="1.0" xmlns="http://www.w3.org/2000/svg"
 width="260.000000pt" height="260.000000pt" viewBox="0 0 260.000000 260.000000"
 preserveAspectRatio="xMidYMid meet">
<metadata>
Created by potrace 1.14, written by Peter Selinger 2001-2017
</metadata>
<g transform="translate(0.000000,260.000000) scale(0.100000,-0.100000)"
fill="#000000" stroke="none">
<path d="M775 2480 c3 -5 8 -10 11 -10 2 0 4 5 4 10 0 6 -5 10 -11 10 -5 0 -7
-4 -4 -10z"/>
<path d="M921 2476 c-9 -10 -9 -16 -1 -21 6 -4 14 -4 17 -1 4 3 1 6 -6 6 -7 0
-9 5 -6 10 4 6 11 7 17 4 7 -4 8 -2 4 4 -9 15 -11 15 -25 -2z"/>
<path d="M1089 2477 c6 -8 7 -18 3 -22 -4 -5 -1 -5 6 -1 10 6 10 11 1 22 -6 8
-14 14 -16 14 -3 0 0 -6 6 -13z"/>
<path d="M1156 2473 c-6 -14 -5 -15 5 -6 7 7 10 15 7 18 -3 3 -9 -2 -12 -12z"/>
<path d="M1406 2482 c-3 -5 1 -9 9 -9 8 0 12 4 9 9 -3 4 -7 8 -9 8 -2 0 -6 -4
-9 -8z"/>
<path d="M857 2459 c7 -7 15 -10 18 -7 3 3 -2 9 -12 12 -14 6 -15 5 -6 -5z"/>
<path d="M1066 2449 c5 -19 4 -21 -5 -9 -9 13 -11 13 -11 -2 0 -10 -5 -18 -11
-18 -5 0 -7 4 -4 10 3 6 -1 7 -10 4 -11 -5 -14 -2 -9 12 3 11 2 15 -3 9 -4 -6
-19 -10 -33 -10 -26 1 -43 -13 -34 -27 3 -4 11 -8 17 -8 8 0 8 3 -1 9 -11 7
-10 9 3 14 11 5 14 3 9 -6 -5 -8 -2 -8 9 2 14 11 18 11 22 -1 9 -22 64 -18 71
5 3 10 1 24 -4 29 -8 8 -9 4 -6 -13z"/>
<path d="M1341 2458 c13 -11 14 -17 5 -29 -6 -9 -17 -14 -24 -12 -7 3 -10 -1
-6 -11 3 -9 11 -13 17 -9 6 4 7 1 2 -7 -6 -10 -11 -9 -21 5 -13 18 -14 18 -34
0 -11 -10 -20 -15 -20 -12 0 3 12 17 27 31 15 14 24 28 21 31 -10 10 -58 13
-52 3 3 -5 0 -16 -8 -25 -11 -14 -11 -16 0 -9 11 7 12 4 3 -12 -6 -12 -17 -24
-24 -28 -9 -5 -9 -4 1 7 20 22 14 34 -8 14 -11 -10 -23 -15 -27 -12 -3 4 -1 7
7 7 10 0 10 4 -1 17 -12 14 -12 16 0 8 9 -5 12 -4 7 3 -4 6 -14 8 -23 5 -11
-4 -14 -3 -9 5 5 8 1 10 -10 5 -12 -4 -15 -3 -10 5 4 7 2 12 -3 12 -6 0 -11
-5 -11 -11 0 -5 -5 -7 -10 -4 -6 4 -7 12 -4 18 4 7 -8 -2 -27 -19 -33 -30 -70
-38 -97 -21 -7 5 -19 4 -27 -3 -10 -8 -19 -8 -34 -1 -24 13 -34 14 -26 2 3 -5
1 -12 -5 -16 -6 -4 -7 -11 -4 -17 4 -7 2 -8 -5 -4 -6 4 -8 13 -4 19 11 18 12
57 2 57 -6 0 -8 -3 -6 -7 2 -5 -9 -19 -26 -33 -17 -14 -28 -19 -24 -12 5 6 4
12 -2 12 -6 0 -11 -7 -11 -15 0 -8 -4 -15 -9 -15 -5 0 -8 6 -7 14 0 8 -3 16
-9 16 -5 1 -17 6 -25 10 -12 7 -16 3 -15 -18 0 -21 -5 -26 -28 -27 -15 -1 -30
2 -33 7 -3 4 -10 6 -15 2 -5 -3 -6 -10 -3 -16 4 -6 0 -15 -7 -20 -10 -7 -9 -8
6 -3 11 4 25 8 32 8 7 0 10 4 7 9 -9 15 3 8 17 -9 8 -9 9 -14 3 -10 -6 3 -22
0 -36 -7 -17 -9 -31 -10 -44 -4 -12 6 -10 2 6 -12 15 -13 18 -20 8 -17 -21 7
-31 -3 -17 -19 7 -8 7 -14 -1 -19 -18 -11 -12 -44 9 -42 11 0 17 5 15 9 -9 15
3 8 17 -9 10 -11 10 -14 2 -9 -9 5 -13 0 -13 -13 0 -12 -4 -21 -10 -21 -5 0
-7 7 -3 15 4 12 0 15 -20 11 -14 -2 -28 0 -31 5 -2 5 -3 4 -1 -3 1 -7 8 -12
15 -10 8 2 10 -3 6 -13 -3 -9 -2 -13 4 -10 5 3 21 0 36 -8 22 -12 24 -15 10
-20 -9 -4 -15 -3 -12 2 3 5 -1 12 -10 15 -12 4 -15 2 -10 -9 3 -8 9 -21 12
-29 3 -7 -1 -16 -9 -19 -7 -3 -14 1 -14 9 0 7 5 10 11 6 6 -3 0 8 -14 25 -14
17 -27 29 -29 27 -2 -2 3 -12 12 -22 10 -10 14 -22 11 -25 -4 -4 -13 1 -20 11
-7 9 -14 14 -14 11 -1 -15 49 -69 55 -59 3 5 10 8 15 5 13 -8 5 -56 -10 -65
-8 -5 -15 -25 -15 -44 -1 -20 -4 -39 -7 -41 -7 -8 -38 6 -38 16 0 13 18 11 22
-3 3 -9 6 -9 12 0 4 7 2 12 -5 12 -8 0 -8 4 -1 13 12 14 11 35 -1 55 -5 6 -4
12 1 12 14 0 10 29 -7 44 -12 11 -21 12 -31 5 -12 -8 -12 -9 4 -7 28 4 30 -33
3 -55 -12 -10 -16 -16 -9 -12 14 7 42 -11 42 -27 0 -6 -7 -5 -15 2 -9 7 -18
10 -22 6 -3 -3 -1 -6 5 -6 6 0 9 -7 6 -15 -4 -8 -11 -12 -16 -9 -6 4 -4 -4 2
-17 11 -19 10 -24 -4 -35 -15 -11 -15 -12 0 -18 12 -5 14 -10 5 -19 -8 -10 -7
-17 1 -25 7 -7 8 -12 2 -12 -5 0 -15 5 -22 12 -9 9 -12 9 -12 0 0 -7 5 -12 11
-12 5 0 8 -4 5 -8 -3 -5 1 -9 9 -9 14 0 19 11 16 30 -1 5 2 6 7 3 5 -3 9 1 9
9 0 8 -5 12 -10 8 -5 -3 -4 4 2 16 7 12 9 26 5 32 -4 8 -1 8 13 0 11 -6 23 -7
27 -4 3 3 6 1 6 -6 0 -6 -7 -11 -16 -9 -10 2 -19 -3 -22 -11 -3 -8 0 -11 7 -7
6 4 11 2 11 -3 0 -6 -5 -11 -11 -11 -5 0 -7 -5 -4 -10 4 -6 12 -7 18 -3 7 4 6
0 -2 -10 -7 -9 -18 -14 -24 -10 -7 4 -8 0 -4 -11 4 -10 7 -20 7 -22 0 -3 5 -2
11 1 6 4 1 -11 -10 -34 -23 -43 -26 -55 -13 -47 5 3 9 -1 9 -9 0 -8 -4 -12 -8
-10 -4 3 -10 -3 -13 -12 -6 -15 -8 -15 -16 -3 -6 8 -10 20 -10 25 0 6 4 4 9
-4 6 -9 11 -10 15 -2 7 10 -6 16 -27 12 -5 -1 -7 4 -4 11 2 7 10 12 17 10 14
-3 30 15 30 33 -1 6 -6 2 -14 -7 -12 -16 -15 -16 -35 -2 -12 9 -25 13 -28 10
-4 -3 -1 -6 6 -6 7 0 9 -5 5 -12 -5 -7 -3 -8 6 -3 8 5 11 3 8 -6 -3 -8 -12
-13 -19 -11 -8 1 -6 -4 5 -12 18 -15 18 -16 1 -42 -20 -31 -6 -56 19 -34 9 7
14 15 12 19 -2 3 7 7 20 7 13 1 24 -2 24 -8 0 -5 -4 -6 -10 -3 -5 3 -19 -5
-31 -19 -12 -14 -26 -23 -31 -20 -4 3 -8 0 -8 -5 0 -17 18 -13 40 9 12 12 20
15 20 8 0 -17 -58 -50 -65 -37 -4 5 -11 9 -17 9 -5 0 -1 -8 11 -17 l21 -18
-25 -21 c-13 -12 -27 -19 -31 -15 -4 3 -4 0 1 -8 7 -12 10 -11 20 2 7 9 15 14
19 10 3 -4 -6 -20 -21 -37 l-28 -31 28 24 c15 14 27 20 27 14 0 -6 -7 -16 -15
-23 -9 -7 -14 -19 -11 -26 3 -8 -5 -20 -17 -29 -12 -8 -17 -15 -11 -15 5 0 15
5 22 12 9 9 12 9 12 1 0 -7 -4 -15 -10 -18 -14 -9 -13 -35 2 -35 6 0 9 3 5 6
-3 4 0 19 8 34 8 15 11 31 7 35 -4 5 -2 5 4 2 7 -4 10 2 8 18 -1 14 2 25 8 25
5 0 7 -10 3 -22 -6 -22 -6 -22 9 -4 9 11 16 15 16 10 0 -6 -10 -21 -22 -33
-18 -20 -19 -27 -9 -43 7 -11 8 -17 3 -14 -5 3 -15 -1 -21 -8 -8 -9 -8 -17 -2
-20 5 -3 11 0 14 6 2 7 8 9 13 5 5 -4 2 -12 -6 -18 -13 -8 -13 -10 0 -20 13
-9 12 -10 -2 -5 -10 3 -20 1 -23 -4 -4 -6 -1 -10 5 -10 6 0 9 -4 6 -9 -4 -5
-1 -12 4 -14 6 -3 5 -4 -2 -3 -7 2 -21 -1 -30 -6 -12 -5 -18 -5 -18 2 0 5 -10
10 -22 9 l-23 0 23 -9 c12 -5 22 -14 22 -20 0 -6 -4 -9 -9 -6 -5 3 -15 -2 -22
-12 -13 -15 -12 -16 4 -3 10 8 17 9 17 3 0 -6 -5 -14 -11 -17 -6 -4 -8 -13 -5
-21 3 -8 -1 -17 -10 -21 -12 -5 -12 -8 6 -20 12 -9 20 -25 20 -44 0 -16 5 -29
11 -29 6 0 9 -7 5 -15 -3 -8 0 -15 6 -15 6 0 8 -3 5 -6 -4 -4 -12 -3 -19 3 -7
5 -19 8 -25 7 -7 -1 -19 -2 -25 -3 -8 -1 -9 -4 -3 -9 17 -12 17 -35 0 -29 -8
4 -15 1 -15 -4 0 -6 9 -9 20 -6 17 4 20 1 18 -26 -1 -17 3 -32 10 -35 6 -2 12
-8 12 -14 0 -6 -8 -4 -18 5 -16 15 -21 15 -38 3 -18 -14 -18 -15 -2 -21 10 -4
15 -11 12 -16 -7 -12 -44 13 -37 26 4 5 2 6 -3 2 -11 -10 -14 -58 -2 -51 4 3
6 10 3 15 -4 5 -2 9 3 9 16 0 22 -13 11 -27 -9 -9 -8 -13 0 -13 6 0 11 -4 11
-10 0 -6 -9 -6 -26 0 -14 6 -23 6 -20 1 11 -18 46 -19 56 -3 5 10 10 12 10 5
0 -6 10 -9 22 -7 21 4 21 4 3 -5 -11 -4 -23 -7 -27 -4 -15 8 -8 -16 10 -33 16
-17 16 -17 0 -11 -10 3 -20 2 -23 -3 -4 -6 -1 -11 4 -11 6 -1 16 -2 23 -3 6 0
13 -8 15 -16 3 -9 1 -11 -4 -5 -14 17 -43 17 -43 1 0 -10 6 -13 18 -10 13 5
14 4 3 -4 -9 -7 -10 -12 -2 -16 6 -4 11 -13 11 -19 0 -7 -4 -6 -10 3 -5 8 -12
11 -16 7 -4 -3 -1 -14 7 -24 12 -14 12 -16 0 -8 -11 6 -13 4 -8 -7 3 -9 3 -19
-1 -23 -12 -12 -8 -30 8 -38 10 -5 8 -6 -7 -3 -12 2 -24 -1 -26 -8 -2 -6 -8
-7 -13 -3 -5 4 -4 11 1 15 6 4 11 16 12 27 1 11 4 32 8 48 3 16 1 27 -5 27 -6
0 -8 5 -4 11 4 8 9 7 15 -2 5 -9 9 -10 9 -3 0 7 -9 22 -21 35 -11 13 -18 19
-15 12 4 -6 3 -13 -1 -16 -5 -2 -2 -2 5 0 8 1 12 -3 9 -9 -2 -7 -9 -12 -15
-11 -6 2 -9 -4 -6 -12 4 -8 10 -15 16 -15 5 0 7 -4 3 -10 -3 -5 -13 -7 -23 -4
-16 5 -16 5 0 -6 18 -11 13 -45 -5 -33 -6 3 -7 1 -3 -5 3 -6 -2 -15 -11 -21
-10 -6 -13 -11 -8 -11 6 0 16 5 22 11 9 9 11 5 9 -17 -2 -15 -9 -30 -16 -32
-8 -3 -10 0 -5 8 5 9 4 11 -3 6 -16 -10 -15 -14 9 -27 17 -9 20 -8 14 2 -5 8
-4 10 4 5 6 -4 9 -12 5 -17 -3 -6 2 -9 11 -7 24 4 28 -41 6 -50 -17 -6 -31
-22 -31 -36 0 -5 10 -1 22 10 14 12 18 13 10 3 -6 -9 -8 -20 -4 -24 4 -5 1 -4
-7 0 -11 6 -13 4 -8 -8 3 -8 -1 -21 -9 -28 -10 -8 -12 -15 -4 -23 16 -16 12
-41 -11 -62 -19 -17 -19 -19 -3 -31 10 -7 13 -13 8 -13 -6 0 -11 -7 -11 -15 0
-8 3 -15 7 -15 4 0 7 -7 7 -15 0 -8 -4 -12 -8 -9 -4 2 -10 0 -14 -6 -3 -5 -1
-10 5 -10 6 0 8 -5 5 -11 -8 -12 -16 -7 -19 13 -1 7 -5 19 -9 25 -5 7 -4 13 0
13 5 0 9 11 9 25 0 19 -3 22 -13 13 -9 -7 -13 -7 -13 1 0 6 6 14 13 17 14 5
20 34 6 31 -4 -1 -14 7 -22 17 -11 16 -15 16 -22 5 -5 -8 -5 -11 0 -7 5 5 15
-1 22 -12 12 -17 12 -24 2 -36 -9 -11 -9 -18 -1 -26 17 -17 15 -25 -8 -31 -14
-3 -18 -10 -14 -21 8 -21 61 -49 76 -40 7 5 8 3 3 -6 -6 -10 -4 -12 8 -7 10 4
16 2 14 -5 -1 -6 4 -13 12 -16 8 -3 11 0 7 7 -4 6 -2 11 4 11 6 0 9 -8 6 -18
-6 -18 1 -20 56 -23 20 0 24 -14 6 -25 -6 -4 -8 -3 -5 3 3 5 0 10 -8 10 -8 0
-12 -3 -10 -6 2 -4 -4 -15 -12 -26 -13 -17 -15 -17 -9 -2 4 12 2 16 -6 11 -7
-5 -8 -2 -3 7 5 8 5 11 0 7 -4 -4 -17 -1 -29 7 -29 21 -38 19 -30 -7 3 -13 3
-20 -1 -16 -11 11 -15 59 -4 53 5 -4 6 1 3 10 -4 9 -13 14 -21 11 -9 -4 -12
-1 -7 7 4 6 4 9 -1 5 -4 -4 -14 -3 -22 4 -9 7 -17 8 -24 1 -11 -11 6 -34 39
-52 9 -5 14 -13 10 -17 -4 -4 -15 -1 -23 6 -12 10 -19 10 -27 2 -7 -7 -8 -12
-3 -12 6 0 3 -5 -5 -11 -13 -9 -13 -10 0 -6 8 2 14 10 12 16 -2 12 11 15 21 4
4 -3 1 -13 -6 -21 -8 -11 -8 -14 0 -9 6 4 13 4 16 0 2 -5 2 -2 0 6 -2 9 2 11
13 7 8 -3 18 -6 20 -6 2 0 4 -5 4 -11 0 -5 -4 -7 -10 -4 -5 3 -10 1 -10 -4 0
-6 6 -11 13 -11 6 -1 1 -8 -13 -16 -23 -14 -14 -13 28 3 15 6 15 5 3 -10 -9
-11 -10 -17 -2 -17 6 0 20 -9 31 -20 11 -11 20 -16 20 -12 0 4 -5 13 -10 18
-12 12 -2 47 11 39 4 -3 6 -12 3 -20 -7 -17 33 -58 47 -49 6 3 8 12 5 19 -3 8
3 19 11 27 14 11 16 11 10 -4 -8 -23 21 -54 36 -39 8 8 7 15 -1 23 -20 20 -13
32 8 13 19 -17 26 -12 21 17 -1 10 11 10 27 -1 11 -7 11 -9 -2 -14 -18 -7 -22
-27 -5 -27 5 0 7 4 4 10 -3 6 -2 10 3 10 20 0 21 -29 1 -35 -11 -4 -18 -9 -16
-12 3 -2 15 0 26 7 17 8 19 15 12 29 -9 15 -6 18 21 18 29 0 30 -1 12 -15 -14
-11 -15 -13 -3 -9 9 3 32 -3 50 -14 33 -19 33 -19 12 -1 -12 11 -19 22 -16 26
3 3 -2 8 -11 12 -15 6 -13 9 10 25 27 17 44 17 44 -1 0 -5 -6 -7 -14 -4 -8 3
-17 1 -20 -4 -9 -15 29 -55 54 -57 22 -2 22 -1 5 12 -15 10 -16 16 -7 25 7 7
12 8 12 2 0 -5 7 -18 15 -28 15 -19 15 -19 29 -1 8 11 12 24 10 30 -3 7 16 11
56 11 38 0 59 -4 57 -10 -2 -6 -13 -9 -23 -8 -10 2 -16 1 -12 -3 4 -4 -3 -16
-15 -27 -21 -18 -21 -18 12 1 18 11 40 17 48 14 12 -5 14 -1 9 14 -4 13 1 26
14 38 11 10 20 13 20 7 0 -6 -4 -13 -9 -17 -15 -9 -6 -57 13 -67 10 -5 20 -8
23 -5 2 3 -4 8 -15 11 -14 5 -18 13 -15 26 3 11 9 17 14 14 5 -3 7 -10 4 -15
-4 -5 -1 -9 5 -9 7 0 9 9 5 23 -5 18 -1 17 23 -11 27 -31 31 -32 46 -17 9 9
14 20 12 24 -3 4 8 8 24 8 25 0 28 -3 19 -20 -6 -10 -8 -22 -4 -25 3 -3 8 4
12 16 6 25 14 27 31 10 10 -10 15 -10 22 2 6 9 5 17 -3 22 -7 4 -7 8 -2 8 20
0 38 -17 26 -24 -6 -4 -9 -11 -6 -16 9 -14 -27 -21 -44 -8 -14 12 -15 11 -2
-5 9 -11 20 -15 30 -11 9 4 24 6 35 6 17 -1 17 0 1 12 -16 11 -16 13 1 27 16
12 17 12 11 -4 -9 -24 5 -21 21 4 7 12 16 18 19 15 3 -3 1 -11 -5 -19 -8 -10
-6 -16 9 -25 11 -7 19 -8 19 -2 0 5 -4 10 -10 10 -5 0 -10 5 -10 11 0 5 4 7
10 4 5 -3 7 0 4 8 -4 10 5 14 33 14 59 1 65 2 58 13 -3 5 -2 10 3 10 6 0 13
-7 16 -16 9 -22 8 -24 -8 -18 -18 7 -28 -9 -20 -30 8 -22 21 -20 29 4 4 11 11
18 16 15 5 -3 6 0 4 8 -3 7 3 22 15 32 11 10 20 13 20 7 0 -6 -5 -14 -10 -17
-6 -3 -8 -18 -6 -32 4 -19 2 -23 -10 -19 -9 3 -12 1 -9 -4 3 -6 1 -10 -6 -10
-7 0 -9 -3 -6 -6 4 -4 18 1 32 10 22 14 24 20 14 32 -6 8 -9 17 -5 21 3 3 6 2
6 -4 0 -6 7 -13 14 -16 11 -4 13 -1 9 11 -6 15 -5 15 10 3 9 -7 14 -17 11 -22
-3 -5 0 -9 5 -9 10 0 16 21 12 43 -1 9 11 9 27 -2 11 -7 11 -9 -2 -14 -18 -7
-22 -27 -5 -27 5 0 7 5 3 11 -4 7 -1 10 7 7 8 -3 14 -10 14 -17 0 -13 24 -31
40 -30 6 0 -1 6 -15 14 -14 8 -21 14 -16 15 5 0 3 6 -3 13 -8 11 -4 14 20 14
29 0 30 -2 13 -14 -10 -7 -13 -13 -7 -13 7 0 15 5 18 10 10 16 22 12 28 -10 3
-13 11 -18 20 -14 17 6 19 44 3 44 -5 0 -7 2 -4 5 7 8 39 -6 34 -14 -3 -4 0
-13 6 -21 8 -12 9 -12 4 2 -3 10 -1 20 4 23 10 6 14 -8 11 -34 -2 -7 2 -10 7
-7 12 7 12 55 1 62 -5 3 -9 10 -9 16 0 6 9 3 20 -7 12 -10 18 -25 15 -32 -2
-8 0 -11 5 -8 6 3 10 1 10 -5 0 -7 6 -10 14 -7 22 9 27 -5 8 -20 -16 -13 -15
-13 3 -5 11 5 26 7 34 4 7 -2 4 5 -8 17 -11 11 -26 20 -32 19 -6 -2 -13 2 -16
8 -2 7 11 11 34 11 59 1 65 2 58 13 -3 5 -2 10 3 10 6 0 13 -7 16 -16 9 -22 8
-24 -8 -18 -8 3 -17 1 -20 -5 -4 -6 -14 -7 -23 -4 -11 4 -14 3 -9 -6 5 -7 14
-10 21 -7 7 2 22 -2 34 -10 12 -9 21 -11 21 -5 0 6 -5 11 -11 11 -5 0 -7 5 -3
12 5 7 11 5 21 -7 7 -11 13 -14 13 -9 0 6 -5 15 -12 22 -9 9 -7 16 7 32 20 22
35 19 16 -4 -14 -17 -1 -50 23 -59 20 -8 32 11 17 26 -19 19 -12 31 9 12 15
-14 17 -22 9 -39 -7 -14 -3 -12 11 7 25 31 35 34 44 11 5 -12 2 -15 -9 -10 -9
3 -14 2 -10 -3 3 -5 -1 -12 -7 -14 -8 -4 -9 -6 -2 -6 7 -1 22 8 35 20 13 11
19 18 13 15 -7 -3 -14 1 -17 8 -4 10 1 14 14 13 10 -1 19 -5 19 -11 0 -5 9 -1
20 9 21 19 28 7 8 -13 -9 -9 -9 -12 0 -12 7 0 12 5 12 11 0 5 4 7 10 4 5 -3 7
0 4 9 -4 11 0 14 15 11 32 -6 41 -14 35 -33 -5 -14 -4 -14 4 -2 7 9 7 19 2 25
-7 8 -1 12 20 12 17 0 30 -4 30 -9 0 -4 5 -8 11 -8 8 0 8 5 -1 15 -10 12 -8
16 11 24 18 6 26 5 31 -8 6 -14 7 -14 7 1 1 9 -4 20 -10 23 -7 5 -4 14 7 26
14 16 15 19 2 14 -12 -5 -15 1 -13 27 4 44 4 45 14 29 7 -10 13 -11 27 -2 15
8 16 11 4 12 -8 1 -19 1 -23 0 -5 -1 -7 4 -4 11 2 7 10 12 16 10 6 -1 11 2 11
8 0 5 -4 10 -9 10 -6 0 -8 9 -6 20 2 11 -1 20 -6 20 -6 0 -8 4 -4 10 3 5 13 7
23 4 14 -5 15 -4 2 5 -8 5 -11 13 -7 17 4 4 17 -1 29 -12 18 -15 20 -16 9 -1
-11 14 -11 17 0 17 9 1 8 4 -4 11 -9 6 -15 14 -12 20 4 5 1 9 -5 9 -7 0 -10
-6 -7 -14 4 -10 0 -14 -14 -13 -21 1 -27 17 -6 17 8 0 7 3 -3 9 -8 6 -18 7
-23 4 -5 -3 -7 0 -5 8 3 8 12 12 19 10 8 -2 23 -4 34 -6 11 -1 23 -3 27 -4 4
0 5 -8 2 -16 -4 -8 -2 -15 3 -15 21 0 8 32 -19 46 -34 18 -36 26 -4 18 14 -3
27 -1 31 6 5 9 2 10 -12 6 -14 -4 -20 -2 -20 9 0 8 4 15 8 15 3 0 14 11 23 25
14 21 14 24 1 19 -8 -4 -15 -12 -15 -20 0 -8 -4 -14 -9 -14 -5 0 -8 11 -8 25
0 13 2 24 6 23 20 -2 31 3 25 13 -4 7 0 9 14 5 11 -4 23 -2 27 3 4 7 -1 8 -11
4 -12 -5 -15 -3 -9 6 6 10 3 11 -14 2 -11 -7 -21 -17 -21 -24 0 -7 -4 -6 -10
3 -7 11 -3 18 15 28 29 15 33 24 9 20 -10 -2 -19 2 -21 8 -2 7 6 10 20 9 28
-3 55 10 44 22 -5 4 -11 3 -15 -2 -4 -6 -16 -11 -27 -13 -19 -2 -19 -1 3 17
25 22 29 33 8 25 -11 -4 -14 2 -11 26 3 24 1 31 -10 27 -7 -3 -19 1 -25 9 -10
12 -7 13 18 10 29 -3 30 -2 20 18 -6 11 -12 23 -14 24 -4 6 -84 -77 -84 -88 0
-5 -8 -10 -17 -10 -15 0 -14 2 3 15 10 8 15 15 9 15 -5 0 -4 4 4 9 18 11 24
44 8 38 -7 -3 -11 -10 -9 -16 3 -16 -3 -14 -19 6 -10 12 -10 14 -1 9 7 -4 15
-1 18 9 5 12 10 13 20 4 8 -6 11 -15 8 -20 -3 -5 0 -9 5 -9 15 0 14 13 -1 29
-11 11 -10 13 4 8 9 -3 22 0 30 6 7 7 11 11 9 10 -2 -2 -11 6 -18 17 -9 13
-21 19 -33 15 -12 -4 -19 1 -23 15 -3 11 -11 20 -19 19 -10 0 -10 -2 0 -6 17
-7 15 -20 -3 -20 -8 0 -15 3 -15 7 0 4 -7 7 -15 8 -8 1 -22 3 -30 4 -19 2 -19
7 3 32 15 19 15 19 0 7 -9 -7 -23 -9 -29 -5 -7 4 -9 3 -6 -4 8 -12 -1 -42 -13
-42 -5 0 -6 10 -4 23 4 20 3 19 -6 -3 l-11 -25 -19 23 c-10 12 -21 22 -25 22
-4 0 -2 -6 4 -13 6 -8 8 -17 4 -20 -3 -4 -13 2 -21 14 -14 21 -36 21 -38 1 -3
-25 -5 -27 -13 -13 -6 10 -13 10 -28 3 -14 -8 -23 -8 -31 0 -21 21 -38 -9 -20
-38 4 -6 -3 -10 -17 -10 -13 0 -22 3 -19 7 2 4 -1 11 -7 15 -7 4 -1 15 17 30
16 13 23 23 17 24 -7 0 -13 -5 -13 -11 0 -8 -4 -8 -14 0 -11 9 -16 9 -22 0 -4
-8 -3 -9 4 -5 7 4 12 3 12 -3 0 -21 -19 -20 -36 1 -9 13 -14 16 -11 6 9 -25
-5 -30 -20 -8 -8 11 -20 20 -26 20 -9 0 -9 -2 0 -8 9 -5 6 -11 -9 -21 -18 -11
-20 -11 -15 3 6 14 3 15 -15 5 -18 -10 -20 -9 -15 5 4 9 3 16 -2 16 -5 0 -12
-10 -15 -22 l-6 -23 -19 23 c-11 12 -22 22 -26 22 -4 0 -2 -6 4 -14 7 -9 8
-17 2 -20 -5 -3 -11 -1 -13 6 -2 6 -9 8 -16 4 -6 -3 -8 -14 -5 -22 5 -13 7
-13 14 -2 7 10 9 10 9 -2 0 -12 2 -12 9 -2 4 8 12 14 16 14 11 0 28 -32 21
-39 -3 -4 -6 -1 -6 5 0 7 -11 11 -25 10 -16 -2 -24 -7 -21 -15 10 -25 -4 -13
-19 17 -9 17 -13 35 -10 40 9 14 -16 23 -28 11 -9 -9 -7 -10 8 -5 18 7 19 6 6
-10 -14 -16 -16 -16 -27 -2 -11 15 -12 15 -18 1 -3 -9 -11 -13 -17 -9 -8 5 -8
9 1 14 8 5 7 9 -5 14 -23 8 -33 7 -18 -2 9 -5 6 -11 -9 -21 -18 -11 -20 -11
-15 3 4 10 1 13 -9 9 -10 -3 -12 0 -8 10 3 8 1 18 -5 22 -7 4 -8 0 -4 -11 5
-13 3 -15 -7 -9 -10 6 -11 4 -4 -6 9 -14 10 -19 13 -41 1 -9 4 -8 11 2 9 13
10 13 10 0 0 -9 3 -11 8 -5 13 18 38 13 40 -9 0 -12 -2 -16 -6 -9 -11 18 -54
12 -47 -7 3 -9 -1 -8 -10 4 -8 11 -15 23 -15 26 0 4 -7 7 -15 7 -20 0 -19 -7
3 -24 13 -11 10 -11 -14 1 -17 8 -34 12 -38 9 -3 -4 -6 -1 -6 6 0 8 6 11 16 7
8 -3 12 -2 9 4 -3 5 4 7 15 5 21 -4 28 9 10 20 -5 3 -10 1 -10 -5 0 -6 -5 -8
-10 -5 -6 4 -8 10 -6 13 2 4 -1 17 -7 29 -11 19 -13 19 -27 5 -13 -14 -12 -15
4 -9 12 5 16 3 13 -5 -2 -7 -11 -11 -18 -9 -8 2 -20 4 -26 4 -21 1 -15 17 10
27 17 7 18 9 5 9 -10 1 -18 6 -18 11 0 21 -2 25 -16 33 -8 4 -19 5 -24 2 -6
-3 -10 -2 -10 4 0 20 21 22 47 6 15 -10 22 -12 18 -4 -6 9 -3 11 9 6 10 -4 15
-3 11 3 -4 6 -12 10 -18 8 -7 -1 -22 1 -34 6 -18 6 -20 10 -10 21 6 7 16 11
21 8 4 -3 1 6 -9 20 -9 14 -22 24 -29 21 -7 -3 -13 2 -13 11 0 8 7 14 16 13
19 -4 49 -31 44 -40 -2 -4 3 -5 12 -1 12 4 13 8 5 13 -6 4 -11 11 -10 16 2 12
-33 64 -43 64 -5 0 -5 -5 -1 -11 4 -7 1 -10 -6 -7 -7 2 -14 12 -16 21 -2 13 2
16 17 12 10 -4 20 -2 20 4 1 6 2 16 3 23 0 6 7 13 15 16 8 3 11 1 9 -4 -3 -5
4 -18 14 -29 20 -20 20 -20 6 10 -15 31 -14 65 3 65 5 0 9 5 9 11 0 8 -4 8
-14 0 -17 -14 -43 -5 -43 14 0 18 14 20 20 3 3 -10 8 -10 18 1 8 8 9 11 2 7
-6 -3 -14 -2 -18 4 -3 5 0 10 8 10 8 0 22 10 33 23 19 22 19 22 -1 6 -31 -26
-62 -32 -62 -14 0 10 6 14 15 10 8 -3 21 0 28 6 12 10 11 14 -6 26 -11 8 -20
19 -20 25 0 6 8 4 18 -5 13 -12 21 -13 32 -6 12 9 12 10 -2 5 -10 -3 -18 -2
-18 3 0 15 13 20 30 11 12 -6 17 -5 17 5 0 14 -30 15 -43 2 -17 -17 -25 -5
-10 12 10 11 25 17 34 14 14 -4 15 -3 2 5 -10 8 -18 8 -27 0 -9 -7 -13 -7 -13
0 0 6 5 14 10 17 6 4 8 16 5 28 -6 22 -6 22 11 2 13 -16 15 -17 11 -3 -3 10
-2 20 3 23 5 3 11 -3 15 -14 3 -11 13 -22 22 -25 12 -5 13 -4 5 7 -7 8 -8 18
-4 22 4 5 2 5 -4 2 -7 -4 -15 0 -18 9 -5 13 -9 14 -21 4 -25 -21 -17 5 10 30
14 13 25 31 24 39 0 14 -1 14 -6 1 -12 -30 -28 -38 -48 -24 -10 8 -15 15 -9
15 5 1 16 2 24 3 8 0 15 8 15 16 0 9 10 25 23 38 24 24 27 37 12 47 -5 3 -7
13 -4 23 5 16 5 16 -6 0 -6 -10 -16 -18 -22 -18 -7 0 -7 4 0 13 5 6 9 27 7 45
-1 17 2 32 7 32 4 0 8 -6 8 -12 0 -9 4 -8 10 2 5 8 10 11 10 6 0 -11 29 25 30
37 0 4 -9 -2 -20 -13 -16 -16 -25 -18 -40 -10 -24 13 -17 35 13 37 21 2 21 1
3 -13 -21 -15 -10 -20 12 -6 7 5 10 16 6 26 -5 13 -9 14 -20 5 -8 -7 -14 -7
-14 -1 0 5 6 15 14 21 11 10 16 9 24 -5 8 -15 9 -15 15 0 4 10 3 15 -2 11 -5
-3 -11 1 -14 7 -3 10 -9 8 -24 -5 -11 -9 -23 -14 -26 -10 -10 9 -9 25 1 19 13
-8 45 22 37 35 -5 7 -3 10 6 7 8 -3 13 -11 11 -17 -1 -7 2 -10 8 -6 5 3 10 1
10 -6 0 -7 3 -10 6 -6 4 3 -3 18 -15 33 -11 14 -18 30 -15 35 11 18 -7 29 -29
17 -19 -10 -20 -9 -10 4 7 8 9 19 5 23 -4 5 2 5 13 1 11 -5 27 -9 34 -10 8 -2
17 -9 19 -16 3 -7 0 -10 -5 -7 -15 9 -13 -31 3 -44 9 -7 14 -8 14 -1 0 6 -5
12 -11 14 -8 3 -8 10 2 26 15 24 15 24 -31 52 -8 4 -12 12 -7 16 4 4 15 0 25
-9 10 -10 25 -17 33 -17 8 0 3 6 -11 13 -16 8 -24 20 -22 31 3 14 -1 17 -12
12 -9 -3 -23 -9 -31 -12 -11 -5 -13 -2 -9 10 3 9 10 13 15 10 5 -3 9 -2 8 3
-3 20 2 27 11 13 7 -12 13 -9 30 13 25 31 40 35 33 8 -3 -10 -1 -21 4 -24 5
-3 8 6 7 20 -1 28 -20 44 -43 35 -14 -5 -14 -3 -3 11 8 9 11 21 8 26 -4 5 -2
12 3 15 5 4 12 -2 14 -11 4 -17 5 -17 6 0 0 9 6 17 11 17 6 0 10 5 10 11 0 8
-6 7 -17 -2 -15 -12 -16 -12 -11 2 4 9 1 22 -5 29 -12 13 -7 12 37 -6 7 -3 16
2 20 12 5 13 4 14 -7 6 -8 -7 -17 -8 -23 -3 -5 5 -18 11 -28 13 -11 1 -20 11
-22 21 -2 13 2 16 15 12 10 -3 27 3 38 12 l20 18 -23 20 c-12 10 -20 24 -16
30 3 5 -2 4 -11 -4 -22 -18 -29 -11 -12 12 12 16 14 16 29 2 9 -9 16 -12 16
-5 0 6 5 8 10 5 6 -3 10 -1 10 5 0 6 -6 10 -12 9 -28 -3 -39 1 -32 14 5 8 2 8
-9 -2 -10 -8 -17 -9 -17 -3 0 6 5 14 10 17 8 5 8 11 0 20 -7 9 -29 12 -65 10
-40 -2 -58 1 -67 13 -11 13 -11 14 2 7 13 -8 13 -7 0 10 -14 17 -13 18 3 12
10 -4 16 -3 12 2 -3 5 3 12 12 14 15 4 15 5 2 6 -9 0 -27 -8 -40 -20 -13 -11
-18 -17 -11 -14 11 6 11 3 0 -14 -7 -12 -17 -21 -22 -21 -4 0 -2 7 5 16 12 15
11 16 -9 10 -17 -6 -22 -3 -22 11 0 13 2 15 9 5 6 -10 10 -10 21 3 11 13 10
14 -5 9 -12 -5 -16 -4 -11 4 4 6 -3 16 -16 22 -20 10 -21 9 -7 -2z m-46 -29
c-4 -5 -13 -9 -22 -9 -13 0 -13 3 -3 15 13 15 35 11 25 -6z m-155 -5 c0 4 9 2
20 -4 21 -11 27 -30 9 -30 -5 0 -7 5 -4 10 3 6 1 10 -4 10 -6 0 -11 -5 -11
-11 0 -6 -6 -9 -14 -6 -7 3 -19 0 -25 -6 -9 -9 -11 -8 -5 6 4 10 13 16 21 13
8 -3 11 -1 8 4 -10 16 -28 12 -50 -13 -21 -25 -11 -4 14 25 11 14 17 15 28 7
7 -6 13 -8 13 -5z m-269 -37 l-24 -22 19 27 c10 14 21 24 23 22 3 -3 -6 -15
-18 -27z m-73 4 c-7 -9 -13 -18 -15 -20 -1 -2 -1 5 0 16 0 11 7 20 14 20 10 0
10 -4 1 -16z m197 9 c-3 -5 -1 -10 6 -10 7 0 10 -2 7 -5 -3 -3 -13 -2 -22 1
-14 5 -15 9 -4 15 17 11 20 11 13 -1z m549 -29 c5 -1 1 -10 -8 -20 -13 -15
-14 -20 -4 -24 10 -3 10 -7 1 -17 -15 -16 -5 -44 11 -31 8 7 17 4 28 -9 14
-16 15 -20 3 -30 -8 -7 -19 -9 -24 -5 -6 3 -19 1 -28 -4 -14 -8 -15 -11 -3
-11 8 0 3 -7 -13 -16 -15 -8 -25 -19 -22 -24 4 -6 1 -10 -5 -10 -6 0 -8 -5 -4
-11 4 -8 9 -7 15 2 6 9 8 5 5 -14 -3 -16 -10 -35 -17 -43 -9 -11 -8 -14 2 -14
8 -1 3 -7 -11 -16 -21 -13 -22 -14 -4 -9 31 8 39 -21 14 -52 -20 -26 -18 -48
4 -40 6 3 12 -3 12 -13 0 -9 -7 -17 -15 -16 -9 1 -16 -4 -16 -11 0 -6 -3 -15
-7 -19 -5 -4 -8 -11 -8 -16 0 -11 33 -6 43 7 4 6 6 0 4 -12 -4 -30 -14 -38
-30 -25 -9 8 -17 8 -27 0 -12 -8 -12 -9 3 -4 12 4 16 2 11 -6 -4 -7 -3 -8 4
-4 7 4 10 2 9 -6 -2 -7 -2 -10 0 -5 3 4 9 7 15 7 6 0 6 -6 -2 -15 -7 -8 -16
-13 -20 -10 -13 8 -23 -16 -12 -27 11 -11 4 -48 -9 -48 -11 0 -7 23 6 33 6 4
-3 5 -19 3 -16 -3 -31 -8 -35 -12 -3 -4 2 -4 12 -1 10 4 16 3 12 -2 -3 -5 5
-17 17 -25 27 -19 33 -89 9 -109 -8 -6 -12 -7 -8 -1 3 6 0 11 -8 11 -14 0 -19
-10 -16 -29 0 -5 -4 -8 -10 -8 -5 0 -7 -5 -3 -11 4 -8 9 -7 16 2 8 11 9 11 5
-1 -2 -8 -10 -14 -17 -12 -8 2 -10 -3 -6 -13 3 -10 2 -14 -5 -9 -6 3 -5 -3 2
-15 10 -14 15 -17 21 -8 4 7 8 7 8 2 0 -6 -5 -16 -11 -22 -8 -8 -5 -14 10 -22
19 -11 20 -13 6 -35 -9 -13 -13 -30 -10 -38 3 -8 -1 -21 -10 -28 -12 -10 -15
-10 -15 0 0 8 -2 11 -5 8 -10 -9 7 -38 19 -32 6 3 1 -3 -11 -14 -22 -19 -22
-20 -3 -37 21 -19 26 -35 12 -35 -5 0 -14 10 -21 23 -6 12 -9 14 -7 5 3 -10
-2 -22 -12 -27 -14 -8 -14 -10 -2 -11 13 0 13 -1 0 -10 -8 -5 -10 -10 -4 -10
6 0 11 -7 11 -15 0 -8 -4 -15 -9 -15 -4 0 -8 6 -8 14 0 7 -7 19 -16 26 -13 12
-14 10 -3 -14 7 -15 26 -34 41 -42 15 -8 28 -20 28 -26 0 -9 -3 -9 -11 -1 -6
6 -19 9 -28 6 -14 -4 -14 -3 -1 6 12 8 11 10 -8 8 -12 0 -22 -4 -22 -7 0 -4
-13 -6 -29 -6 -17 0 -28 3 -25 7 2 4 -2 10 -8 13 -7 3 -4 4 7 1 15 -4 21 0 22
15 2 17 -1 18 -17 10 -13 -7 -21 -7 -26 2 -4 7 -4 10 1 6 4 -4 17 -2 29 4 11
7 24 11 28 10 4 -1 5 5 1 13 -4 12 -9 13 -18 5 -9 -8 -15 -8 -20 0 -4 6 -1 9
5 8 7 -2 17 5 23 15 10 14 9 20 -3 27 -12 8 -11 11 7 16 13 4 20 10 17 15 -3
5 -15 4 -27 -2 -21 -10 -21 -9 -3 5 10 9 22 13 27 11 4 -3 10 -1 14 5 3 5 2
10 -4 10 -6 0 -7 7 -4 17 4 10 2 14 -4 10 -20 -13 -23 23 -3 43 22 22 26 35 8
23 -7 -4 -5 5 4 19 11 17 14 29 8 33 -6 3 -10 11 -10 16 0 6 5 7 10 4 6 -3 10
-2 10 4 0 5 -5 12 -10 14 -6 3 -5 4 2 3 7 -2 13 -11 13 -22 0 -23 13 -44 27
-44 7 0 6 5 -2 15 -6 8 -9 18 -6 23 3 5 -1 18 -9 28 -19 25 -19 36 1 32 10 -2
19 3 21 10 3 7 -1 11 -9 10 -7 -2 -13 6 -13 17 0 11 -4 25 -8 32 -8 12 12 53
25 53 14 0 8 -18 -7 -24 -8 -3 -15 -11 -15 -18 0 -7 12 0 26 16 23 26 24 30
10 38 -9 5 -21 6 -28 2 -6 -4 -8 -3 -4 4 3 5 0 13 -6 16 -7 3 -2 3 12 0 24 -6
24 -6 8 13 -10 11 -18 23 -18 28 0 5 6 1 13 -8 11 -16 13 -16 25 3 11 19 11
21 -5 18 -12 -2 -18 4 -19 20 -1 12 3 25 9 29 6 3 7 1 3 -5 -4 -7 -3 -12 3
-12 20 0 20 17 -1 50 -18 30 -18 32 -2 20 16 -14 17 -13 11 3 -4 10 -3 16 2
13 5 -3 14 1 21 10 12 13 10 14 -14 10 -23 -4 -26 -2 -16 9 6 8 19 11 28 8 12
-4 10 2 -8 23 -14 15 -17 22 -7 14 19 -14 56 -21 58 -11 6 45 5 49 -18 47 -18
-1 -21 -5 -17 -21 5 -16 4 -18 -7 -8 -9 9 -10 18 -2 36 9 20 8 28 -5 43 -9 10
-5 8 11 -5 29 -26 35 -23 16 8 -10 14 -7 25 14 56 25 37 27 55 6 55 -6 0 -8
-4 -5 -8 7 -12 -12 -38 -21 -29 -4 5 -1 12 7 17 8 6 11 10 6 10 -5 0 -4 6 0
13 5 6 9 24 8 39 0 15 3 25 8 22 5 -3 6 -15 2 -26 -4 -14 -2 -18 5 -14 6 4 9
2 6 -6 -4 -9 2 -14 15 -15 19 -2 19 0 4 23 -9 13 -12 24 -8 24 5 1 -2 10 -16
22 l-25 21 25 -8 c21 -7 23 -6 13 7 -10 11 -10 17 0 27 10 11 8 12 -9 7 -18
-5 -21 -3 -19 16 1 13 3 23 4 23 2 1 75 -3 85 -4z m-822 -84 c-7 -8 -8 -18 -4
-22 4 -5 1 -5 -5 -1 -18 10 -16 -4 5 -28 17 -21 17 -21 -5 -2 -19 15 -25 16
-38 6 -12 -10 -15 -10 -15 3 0 9 5 19 10 22 8 5 8 11 0 20 -8 10 -6 13 7 11
10 0 18 5 19 12 1 6 2 15 3 19 0 4 8 0 18 -9 13 -13 14 -20 5 -31z m-11 -110
c-10 -9 -11 -8 -5 6 3 10 9 15 12 12 3 -3 0 -11 -7 -18z m824 14 c3 -5 0 -13
-6 -17 -8 -5 -9 -3 -4 6 5 9 4 11 -4 6 -6 -4 -9 -12 -5 -17 3 -5 10 -7 15 -4
19 12 29 -6 17 -28 -7 -12 -11 -26 -10 -31 2 -4 -2 -14 -8 -21 -13 -16 4 -30
23 -19 6 4 3 -2 -7 -14 -24 -28 -32 -28 -41 1 -9 26 -9 52 -1 89 4 15 1 30 -5
34 -8 4 -7 9 2 15 18 11 26 11 34 0z m-830 -70 c3 -5 2 -12 -3 -15 -5 -3 -9 1
-9 9 0 17 3 19 12 6z m-85 -201 c0 -5 -5 -10 -11 -10 -5 0 -7 5 -4 10 3 6 8
10 11 10 2 0 4 -4 4 -10z m-43 -232 c-2 -12 -9 -24 -15 -26 -15 -5 -15 3 0 28
16 25 19 25 15 -2z m773 -58 c0 -5 -5 -10 -11 -10 -5 0 -7 5 -4 10 3 6 8 10
11 10 2 0 4 -4 4 -10z m134 -19 c-1 -6 -2 -14 -2 -19 -3 -10 -41 -33 -64 -37
-19 -4 -19 -3 -3 21 12 19 14 29 5 39 -9 10 -4 13 27 10 21 -1 38 -7 37 -14z
m-886 -8 c-16 -15 -16 -17 0 -30 16 -12 15 -12 -3 -6 -11 3 -17 3 -13 -2 9 -9
-11 -49 -20 -41 -10 11 -11 40 -2 51 4 5 9 15 9 20 1 6 5 10 10 10 5 0 13 3
17 8 4 4 10 7 13 7 3 0 -2 -8 -11 -17z m742 -3 c0 -5 -5 -10 -11 -10 -5 0 -7
5 -4 10 3 6 8 10 11 10 2 0 4 -4 4 -10z m110 -60 c0 -5 -4 -10 -10 -10 -5 0
-10 5 -10 10 0 6 5 10 10 10 6 0 10 -4 10 -10z m-859 -23 c-10 -9 -11 -8 -5 6
3 10 9 15 12 12 3 -3 0 -11 -7 -18z m732 -4 c-3 -7 -6 -13 -8 -13 -2 0 -5 6
-8 13 -3 8 1 14 8 14 7 0 11 -6 8 -14z m-780 -28 c-3 -9 -8 -14 -10 -11 -3 3
-2 9 2 15 9 16 15 13 8 -4z m40 -50 c-3 -9 -8 -14 -10 -11 -3 3 -2 9 2 15 9
16 15 13 8 -4z m723 -37 c4 -7 4 -10 -1 -6 -4 4 -14 0 -22 -10 -13 -15 -13
-15 -3 6 12 25 16 27 26 10z m-16 -88 c0 -5 -5 -10 -11 -10 -5 0 -7 5 -4 10 3
6 8 10 11 10 2 0 4 -4 4 -10z m-748 -27 c-6 -3 -10 -9 -7 -14 4 -5 -2 -6 -12
-2 -16 6 -16 5 -4 -10 7 -9 18 -14 25 -11 6 3 2 -1 -8 -10 -10 -8 -23 -13 -27
-10 -5 3 -9 0 -9 -6 0 -6 10 -15 23 -20 17 -7 18 -9 5 -9 -10 -1 -18 -6 -18
-12 0 -5 6 -7 13 -3 6 4 9 4 5 -1 -4 -4 -3 -17 3 -28 7 -11 -3 -6 -24 14 -24
22 -32 37 -26 45 5 6 5 14 1 18 -4 4 0 13 9 19 15 12 19 18 19 35 0 4 10 8 23
9 12 0 16 -1 9 -4z m718 -97 c0 -2 -8 -10 -17 -17 -16 -13 -17 -12 -4 4 13 16
21 21 21 13z m120 -8 c0 -4 -5 -10 -10 -13 -6 -4 -8 -10 -5 -15 3 -5 0 -12 -6
-16 -8 -4 -9 -3 -5 4 4 7 3 12 -2 12 -14 0 -33 -26 -25 -33 3 -4 1 -7 -6 -7
-7 0 -3 -9 10 -19 15 -12 26 -15 30 -9 4 6 13 0 22 -13 9 -12 14 -25 11 -28
-3 -3 -10 1 -14 10 -14 24 -55 19 -55 -6 0 -13 7 -19 18 -19 9 1 14 -2 11 -7
-3 -5 0 -9 7 -9 8 0 8 -4 -1 -15 -16 -19 -31 -20 -24 -1 3 8 2 16 -3 19 -4 3
-8 -11 -9 -31 -1 -21 1 -31 3 -24 3 6 9 12 15 12 6 0 5 -7 -3 -16 -12 -14 -14
-14 -26 2 -7 10 -13 15 -13 11 0 -4 -10 -3 -22 3 -22 11 -22 10 -4 -4 14 -12
16 -16 5 -16 -12 0 -12 -2 1 -10 13 -8 13 -10 1 -10 -11 0 -9 -4 5 -16 18 -14
18 -15 -4 -4 -22 11 -23 10 -12 -9 6 -12 13 -21 16 -21 3 0 3 4 0 8 -2 4 4 8
14 8 10 0 16 -6 13 -12 -5 -13 -20 -13 -43 1 -12 7 -13 6 -3 -6 10 -12 10 -18
1 -27 -7 -7 -8 -12 -2 -12 5 0 2 -5 -6 -10 -12 -7 -10 -9 7 -7 12 0 19 5 16
10 -3 5 4 4 16 -2 18 -10 20 -9 15 6 -5 15 -4 16 5 3 6 -8 11 -10 11 -5 0 6
-5 16 -11 22 -9 9 -7 12 10 10 16 -1 20 -6 15 -22 -6 -20 -6 -20 9 0 15 19 16
19 23 2 5 -15 9 -16 15 -5 6 8 9 9 9 1 0 -12 17 -12 36 -1 6 4 11 1 11 -7 0
-8 -6 -15 -12 -15 -7 0 -18 -7 -25 -15 -10 -12 -10 -15 0 -15 8 0 11 -2 8 -5
-10 -10 -39 8 -34 21 6 15 5 15 -32 19 -13 1 -21 -2 -19 -9 2 -6 12 -10 22 -8
14 3 15 1 4 -11 -12 -13 -15 -13 -22 -1 -4 8 -13 14 -19 14 -9 0 -9 -3 0 -12
15 -15 15 -28 1 -28 -5 0 -8 4 -5 9 7 10 -22 36 -31 28 -3 -4 -15 -1 -26 5
-17 9 -19 8 -14 -6 4 -9 2 -16 -4 -16 -6 0 -9 10 -7 22 2 15 -5 26 -22 36 -21
11 -22 13 -5 11 35 -3 41 1 42 24 2 20 1 21 -11 5 -7 -10 -17 -18 -21 -18 -4
0 -2 6 4 14 9 11 9 20 2 35 -13 23 -2 34 19 20 22 -13 29 -11 25 9 -2 9 -4 19
-4 22 -1 3 -5 0 -9 -7 -5 -8 -13 -9 -22 -3 -13 8 -12 10 3 10 9 0 17 5 17 11
0 5 -4 8 -8 5 -5 -3 -9 1 -9 9 0 8 4 12 9 9 5 -3 6 9 3 28 -4 23 -2 29 4 18 5
-8 7 -18 5 -22 -6 -9 -1 -10 19 -2 13 5 12 9 -6 27 -12 12 -25 21 -28 20 -3
-1 -6 5 -6 13 0 12 3 12 17 -1 9 -8 22 -15 30 -15 7 0 1 9 -14 21 -20 16 -24
24 -16 38 5 10 6 22 2 27 -4 5 3 0 16 -10 12 -11 22 -14 22 -8 0 6 -4 14 -10
17 -16 10 -12 28 5 22 8 -4 17 -3 19 2 6 9 76 9 76 -1z m-866 -44 c3 -8 2 -12
-4 -9 -6 3 -10 10 -10 16 0 14 7 11 14 -7z m-13 -82 c-6 -2 -9 -7 -7 -11 3 -4
0 -13 -6 -21 -8 -12 -9 -12 -5 2 3 9 1 18 -5 20 -6 2 -12 11 -14 20 -2 14 2
15 23 5 14 -6 20 -13 14 -15z m-45 -89 c-3 -4 4 -13 16 -20 18 -10 20 -12 6
-13 -10 0 -18 -4 -18 -10 0 -5 8 -6 18 -3 15 6 15 5 2 -8 -14 -14 -50 -22 -50
-12 0 3 7 12 16 21 15 14 15 17 0 28 -13 9 -14 13 -4 17 19 8 22 8 14 0z m867
-28 c11 -7 24 -12 31 -9 7 3 18 -7 24 -21 9 -20 9 -27 -1 -30 -26 -9 -52 2
-51 22 1 12 -5 20 -14 19 -8 0 -16 7 -17 17 -4 20 4 21 28 2z m-25 -81 c-1 -5
-9 -9 -16 -10 -10 -2 -11 1 -1 12 12 14 24 13 17 -2z m784 -39 c10 -22 12 -23
23 -8 11 15 13 15 24 -6 7 -13 10 -25 7 -29 -3 -3 -6 0 -6 7 0 9 -8 11 -21 8
-12 -3 -22 0 -26 9 -3 8 -9 14 -14 14 -4 0 -6 -6 -3 -14 3 -7 -2 -16 -12 -20
-14 -5 -15 -4 -4 9 8 9 9 15 2 15 -6 0 -15 -7 -20 -16 -8 -15 -10 -15 -15 0
-4 9 -12 16 -18 16 -8 0 -7 -5 2 -17 12 -15 12 -16 -1 -8 -8 6 -18 10 -22 10
-5 0 -8 4 -7 9 0 5 -5 13 -13 17 -9 6 -9 9 -1 9 6 0 15 -5 18 -10 4 -7 12 -7
25 0 12 7 21 7 25 0 4 -6 13 -5 25 2 14 9 16 14 7 20 -9 6 -9 8 1 8 7 0 18
-11 24 -25z m-865 9 c-3 -3 -12 -4 -19 -1 -8 3 -5 6 6 6 11 1 17 -2 13 -5z
m620 -1 c-3 -5 1 -13 8 -20 10 -10 15 -9 20 5 6 16 8 15 21 -2 8 -11 14 -25
14 -30 0 -6 -4 -5 -8 2 -9 13 -59 11 -82 -3 -9 -5 -11 -4 -6 3 4 7 2 12 -3 12
-6 0 -11 -6 -11 -12 0 -9 -3 -8 -10 2 -5 8 -14 15 -20 15 -15 0 -12 20 3 21 6
0 17 -4 24 -9 8 -6 18 -3 28 7 17 17 30 22 22 9z m-203 -19 c6 2 7 1 3 -2 -4
-2 0 -11 10 -19 17 -13 16 -13 -5 -3 -25 12 -46 5 -36 -13 4 -7 3 -8 -1 -4
-11 10 -16 38 -8 50 3 5 10 4 15 -1 6 -6 16 -9 22 -8z m576 -6 c0 -14 -6 -17
-27 -14 -14 3 -31 10 -37 16 -8 8 -6 9 5 5 10 -4 19 -2 23 3 10 16 36 9 36
-10z m50 -3 c0 3 9 1 20 -5 16 -9 18 -15 10 -31 -6 -11 -16 -16 -22 -13 -7 5
-5 12 8 22 18 14 18 14 -1 7 -11 -4 -30 -8 -42 -9 -18 -3 -21 0 -13 14 5 10 6
21 2 25 -4 4 3 2 16 -4 12 -6 22 -9 22 -6z m-993 -20 c0 -8 -4 -12 -9 -9 -5 3
-6 10 -3 15 9 13 12 11 12 -6z m1067 -1 c4 -9 4 -19 1 -22 -3 -3 -5 0 -5 8 0
10 -3 10 -15 0 -16 -14 -18 -10 -9 14 8 21 20 20 28 0z m46 -48 c0 -11 -19
-15 -25 -6 -3 5 1 10 9 10 9 0 16 -2 16 -4z m-5 -49 c4 5 5 2 1 -5 -4 -7 -12
-10 -17 -7 -5 4 -9 1 -9 -5 0 -6 -4 -9 -10 -5 -5 3 -6 13 -3 22 6 15 5 16 -9
3 -11 -11 -12 -17 -4 -22 8 -6 7 -8 -2 -8 -7 0 -10 -5 -6 -11 5 -8 9 -8 14 1
5 9 9 9 14 1 4 -6 2 -11 -4 -11 -6 0 -8 -5 -4 -11 3 -6 9 -7 13 -3 8 11 31 16
31 7 0 -3 -7 -15 -16 -25 -14 -15 -15 -20 -3 -35 9 -11 10 -14 2 -9 -14 8 -14
7 -17 -39 -1 -16 -5 -36 -9 -42 -5 -7 -4 -13 1 -13 17 0 8 -30 -10 -36 -19 -6
-19 -6 -1 -20 17 -14 17 -15 -2 -5 -27 13 -62 -10 -42 -28 8 -6 17 -9 21 -6 3
3 2 -1 -4 -7 -16 -19 -12 -27 10 -23 17 3 19 1 9 -16 -10 -20 -36 -21 -32 -1
1 5 -4 12 -11 15 -9 4 -12 -2 -10 -19 1 -13 -2 -24 -7 -24 -6 0 -7 -5 -3 -11
4 -8 9 -7 15 2 6 10 9 10 9 2 0 -6 -4 -14 -10 -18 -5 -3 -7 -12 -3 -20 3 -8 0
-15 -7 -15 -6 0 -9 4 -6 9 3 5 -1 14 -9 21 -10 9 -15 9 -15 1 0 -6 4 -11 8
-11 5 0 9 -7 9 -15 0 -8 -5 -11 -10 -8 -6 4 -7 0 -3 -8 4 -8 -1 -5 -11 7 -10
11 -24 19 -31 18 -7 -1 -8 0 -2 3 5 2 7 10 3 16 -4 7 1 6 11 -2 16 -13 17 -12
13 10 -2 13 -2 18 0 11 3 -7 9 -10 14 -6 5 3 6 10 3 16 -4 6 -2 8 3 5 6 -4 14
1 17 10 7 16 -10 36 -38 46 -6 3 -7 8 -2 13 5 5 11 4 13 -4 3 -6 9 -9 14 -6 6
3 5 12 -3 22 -10 12 -10 16 0 19 8 3 5 11 -10 24 l-23 20 26 -15 c27 -17 39
-13 39 13 0 13 -2 13 -9 3 -6 -11 -11 -10 -25 3 -18 18 -21 30 -6 20 6 -3 13
1 16 10 4 9 13 14 20 11 7 -3 16 -1 19 4 6 10 -7 14 -35 11 -12 -2 -13 0 -1 7
11 8 10 12 -5 22 -16 10 -16 11 -1 6 21 -7 49 3 42 15 -3 4 -13 6 -23 3 -14
-5 -15 -4 -2 5 12 9 13 11 1 11 -8 0 -11 3 -8 6 4 4 13 1 22 -6 20 -16 19 -6
-1 25 -9 14 -21 22 -27 18 -6 -4 -7 -1 -2 7 6 10 12 8 27 -9 10 -13 18 -22 19
-20 7 33 5 39 -9 40 -12 0 -10 3 6 10 13 5 21 13 18 18 -4 5 1 17 10 26 15 14
18 14 34 0 9 -8 20 -12 25 -8z m5 -31 c0 -11 -19 -15 -25 -6 -3 5 1 10 9 10 9
0 16 -2 16 -4z m-1944 -39 c1 -9 -2 -15 -7 -11 -5 3 -6 10 -3 16 4 6 -2 8 -17
3 -19 -5 -21 -4 -9 4 19 14 33 9 36 -12z m-26 -167 c0 -5 -5 -10 -11 -10 -5 0
-7 5 -4 10 3 6 8 10 11 10 2 0 4 -4 4 -10z m1833 -113 c4 3 7 1 7 -5 0 -18
-27 -14 -34 4 -5 13 -4 14 7 6 8 -7 17 -9 20 -5z m61 -49 c-3 -4 -1 -8 5 -8
12 0 9 -18 -8 -48 -9 -16 -18 -21 -32 -17 -11 4 -19 2 -19 -5 0 -6 4 -9 8 -6
4 2 14 1 21 -3 10 -6 9 -10 -4 -14 -11 -5 -14 -3 -9 6 4 6 4 9 -1 5 -4 -4 -16
-3 -26 3 -15 8 -17 6 -12 -7 4 -12 3 -15 -5 -10 -7 4 -12 15 -12 24 0 14 -2
15 -10 2 -6 -9 -5 -17 3 -23 8 -6 5 -7 -7 -3 -16 6 -17 4 -6 -9 10 -11 15 -13
20 -4 4 6 9 7 12 3 2 -5 -7 -20 -20 -33 -14 -13 -23 -17 -19 -9 7 19 -41 18
-53 -1 -6 -10 -10 -8 -16 10 -4 13 -7 27 -6 32 2 9 -12 9 -21 0 -4 -3 1 -15
10 -25 15 -17 15 -20 3 -28 -8 -6 -19 -10 -25 -10 -5 0 -4 4 4 9 9 6 10 11 2
15 -6 4 -11 1 -11 -6 0 -9 -3 -9 -10 2 -8 13 -10 13 -10 1 0 -11 -4 -9 -15 5
-13 16 -14 16 -9 1 4 -10 1 -17 -6 -17 -6 0 -9 4 -6 9 3 5 -2 15 -12 22 -16
13 -16 13 -2 -5 12 -16 12 -18 1 -11 -10 6 -12 4 -6 -5 6 -9 4 -11 -5 -5 -9 6
-11 4 -5 -5 6 -9 4 -11 -5 -5 -9 6 -11 4 -5 -4 6 -10 3 -11 -12 -2 -16 8 -24
6 -39 -8 -17 -16 -20 -16 -31 -2 -12 15 -14 14 -27 -2 -10 -14 -15 -15 -19 -5
-5 11 -7 11 -15 0 -12 -18 -22 5 -18 41 2 15 -2 25 -8 24 -6 -1 -10 4 -8 11 1
9 -5 8 -23 -4 -29 -19 -30 -20 -9 -28 10 -4 13 -2 9 7 -4 6 0 3 9 -7 8 -10 13
-23 10 -27 -3 -5 0 -9 6 -9 6 0 8 -5 4 -11 -4 -8 -9 -7 -15 2 -7 11 -9 11 -9
1 0 -8 -8 -6 -21 7 -17 16 -26 18 -42 10 -15 -9 -18 -8 -12 2 6 8 4 10 -5 4
-8 -5 -11 -4 -6 3 3 6 2 13 -4 17 -6 4 -7 11 -4 17 5 7 2 8 -6 3 -9 -5 -11 -4
-6 4 4 6 12 9 17 6 9 -6 12 3 11 40 -1 17 0 17 4 3 6 -21 20 -23 27 -5 4 9 6
9 6 -1 1 -7 -6 -15 -14 -18 -8 -4 -15 -11 -15 -17 0 -6 3 -7 7 -4 3 4 13 1 21
-6 13 -10 15 -9 10 4 -8 20 6 46 16 30 4 -6 2 -11 -5 -11 -7 0 -10 -2 -7 -5 3
-3 13 -3 22 1 14 5 14 9 4 22 -12 14 -11 14 10 1 12 -8 22 -16 22 -19 0 -3 10
-6 23 -7 21 -2 21 -1 3 13 -11 8 -15 14 -9 14 7 0 15 -5 18 -10 4 -6 15 -8 26
-5 10 4 19 2 19 -3 0 -6 8 -9 18 -7 9 2 21 4 25 4 5 1 5 7 2 14 -4 6 3 1 14
-12 14 -15 21 -18 21 -9 0 8 -3 18 -7 22 -11 10 -12 37 -2 30 5 -3 7 -10 4
-15 -4 -5 0 -12 9 -15 8 -3 12 -13 10 -22 -4 -13 -1 -11 13 4 19 22 20 22 32
2 7 -11 15 -18 18 -15 3 3 -5 21 -18 39 -13 18 -16 27 -8 21 9 -7 19 -10 23
-6 4 4 4 -1 0 -11 -6 -16 -4 -17 15 -7 12 7 18 17 15 23 -4 7 -3 8 4 4 18 -11
15 -22 -8 -32 -19 -9 -20 -10 -5 -29 9 -11 13 -14 10 -7 -4 8 1 20 14 28 12 9
18 20 15 26 -4 7 -2 8 4 4 6 -4 8 -14 5 -24 -6 -15 -5 -15 10 -3 14 11 20 11
32 1 18 -15 20 1 3 18 -9 9 -9 12 0 12 7 0 12 -4 12 -10 0 -5 5 -10 11 -10 5
0 8 4 5 9 -8 13 18 21 34 11 17 -10 63 18 56 35 -2 7 0 17 6 23 8 8 7 16 -3
28 -13 16 -12 16 8 4 12 -8 19 -18 17 -22z m-1968 -20 c3 -20 -22 -13 -30 8
-4 11 -1 14 11 12 9 -2 17 -11 19 -20z m-9 -54 c3 -8 11 -13 18 -11 6 3 12 -1
12 -8 0 -10 -5 -11 -17 -5 -24 13 -45 40 -31 40 6 0 14 -7 18 -16z m238 4 c5
4 5 1 1 -5 -10 -18 -23 -16 -30 3 -5 13 -4 14 7 6 8 -7 18 -8 22 -4z m40 -6
c1 -4 5 -18 9 -31 6 -18 10 -21 17 -10 11 18 12 32 1 25 -5 -3 -9 1 -9 9 0 19
24 1 32 -24 3 -9 15 -17 27 -18 20 -2 21 0 7 10 -9 7 -21 23 -28 37 l-12 25
18 -23 c15 -19 21 -20 33 -10 12 11 12 11 1 -4 -15 -20 -2 -25 17 -6 8 8 12 9
12 1 0 -6 -5 -13 -10 -15 -15 -5 -21 -46 -8 -54 7 -5 8 -2 3 6 -5 8 -4 11 2 7
5 -3 10 0 10 8 0 8 -5 11 -10 8 -6 -3 -7 -1 -3 6 4 6 12 9 17 6 9 -6 12 3 11
40 -1 17 0 17 4 3 6 -21 20 -23 27 -5 4 9 6 9 6 -1 1 -7 -6 -15 -14 -18 -8 -4
-15 -10 -15 -16 0 -5 5 -6 10 -3 6 3 10 1 10 -5 0 -7 -7 -9 -17 -5 -14 5 -15
3 -6 -6 14 -14 45 -5 42 13 -4 32 1 42 13 30 18 -18 32 -14 17 5 -13 15 -12
15 9 2 12 -8 22 -16 22 -19 0 -3 10 -6 23 -7 21 -2 21 -1 3 13 -11 8 -15 14
-9 14 7 0 15 -5 18 -10 4 -6 15 -8 26 -5 10 4 19 2 19 -3 0 -6 8 -9 18 -7 9 2
21 4 25 4 5 1 5 7 2 14 -4 6 3 1 14 -12 14 -15 21 -18 21 -9 0 8 -3 18 -7 22
-11 10 -12 37 -2 30 5 -3 7 -10 4 -15 -4 -5 0 -12 9 -15 8 -3 12 -13 10 -22
-4 -13 -1 -11 13 4 19 22 20 22 32 2 7 -11 15 -18 18 -15 3 3 -5 21 -18 39
-13 18 -16 27 -8 21 9 -7 19 -10 23 -6 4 4 4 -1 0 -11 -6 -16 -4 -17 15 -7 12
7 19 17 15 24 -4 7 -3 8 2 4 5 -5 9 -12 9 -15 2 -26 18 -48 36 -49 l22 -2 -22
20 c-23 22 -29 38 -7 20 11 -10 17 -8 25 6 6 10 11 13 11 8 0 -6 -5 -16 -12
-23 -7 -7 -8 -12 -2 -12 6 0 15 5 22 12 7 7 12 9 12 4 0 -4 -6 -14 -14 -22 -8
-8 -13 -23 -11 -34 5 -28 -11 -25 -19 3 l-6 22 -14 -24 c-10 -18 -15 -21 -20
-10 -5 12 -7 12 -12 0 -5 -11 -8 -11 -15 0 -7 12 -9 12 -9 0 0 -11 -4 -9 -15
5 -13 16 -14 16 -9 2 4 -11 1 -18 -6 -18 -6 0 -9 4 -6 9 3 5 -2 15 -12 22 -16
13 -16 13 -2 -6 14 -19 14 -19 -5 -5 -11 8 -17 10 -13 6 4 -5 2 -16 -5 -24 -7
-10 -8 -13 -1 -9 7 4 17 1 23 -7 9 -11 9 -15 -1 -18 -8 -3 -6 -7 6 -11 10 -4
15 -3 11 3 -4 6 4 9 17 7 18 -1 22 2 20 17 -3 17 -2 18 12 7 9 -7 13 -17 10
-22 -3 -5 0 -9 5 -9 14 0 14 13 0 27 -9 9 -7 12 10 10 13 -1 20 -6 17 -14 -7
-18 11 -26 31 -13 15 9 14 10 -7 5 -19 -5 -21 -4 -9 4 18 12 52 8 56 -6 2 -6
-4 -10 -14 -9 -12 1 -17 -5 -15 -17 3 -17 1 -17 -20 -4 -27 17 -83 16 -101 -2
-9 -10 -8 -11 8 -5 18 7 19 6 6 -10 -14 -16 -15 -16 -24 1 -6 10 -16 22 -24
26 -7 5 -11 12 -9 16 3 5 -5 13 -18 19 -19 9 -28 7 -44 -8 -17 -16 -21 -17
-26 -4 -4 10 -2 13 6 8 6 -4 8 -3 5 3 -4 6 1 10 11 9 10 0 17 6 17 16 0 9 4
20 8 24 4 4 7 12 7 18 0 6 -4 5 -9 -3 -10 -16 -51 -26 -51 -13 0 4 -10 8 -22
9 -22 2 -22 1 2 -13 21 -12 22 -14 5 -12 -11 2 -23 7 -27 12 -4 6 -14 4 -24
-5 -12 -9 -15 -10 -10 -1 5 8 3 11 -6 10 -7 -2 -12 3 -10 10 2 9 -5 7 -22 -5
-15 -11 -20 -21 -13 -25 6 -4 15 -4 19 -2 7 5 12 -10 9 -28 0 -5 4 -8 10 -8 5
0 7 -5 3 -11 -4 -8 -9 -7 -15 2 -9 14 -10 12 -13 -31 -1 -8 -8 -15 -16 -15 -8
0 -14 7 -12 17 1 9 -3 15 -10 14 -25 -3 -39 -18 -33 -33 4 -13 3 -14 -10 -3
-8 7 -13 16 -10 20 3 5 -1 11 -7 14 -7 3 -3 3 10 0 24 -6 32 19 10 33 -20 12
-50 14 -43 3 3 -5 -8 -16 -25 -25 -27 -14 -33 -14 -59 0 -32 16 -74 10 -49 -7
10 -8 10 -9 -2 -5 -21 5 -19 30 3 33 22 3 36 14 18 14 -7 0 -10 4 -6 9 3 5 0
13 -6 17 -8 5 -9 3 -4 -6 6 -9 4 -11 -5 -5 -9 6 -11 4 -5 -5 6 -9 4 -11 -5 -5
-9 6 -11 4 -5 -5 6 -9 4 -11 -5 -5 -9 6 -11 4 -5 -4 6 -10 3 -11 -12 -2 -11 6
-23 7 -27 3 -4 -3 -4 2 -1 13 5 15 4 16 -3 6 -11 -15 -36 -6 -26 10 3 5 9 7
14 4 5 -3 16 5 24 17 19 27 20 38 4 34 -7 -1 -10 -1 -5 1 4 3 5 10 1 16 -3 7
3 2 14 -10 11 -12 23 -19 26 -15 4 3 4 -1 1 -10 -5 -11 -2 -16 9 -14 19 3 34
16 17 16 -7 0 -9 5 -5 11 5 8 10 6 16 -5 5 -9 14 -16 20 -16 7 0 7 4 1 13 -11
13 -14 51 -4 41 3 -3 6 -9 6 -12z m625 -8 c0 -8 5 -14 11 -14 6 0 8 7 4 18 -5
14 -4 15 7 4 11 -11 10 -16 -4 -26 -10 -7 -18 -17 -18 -21 0 -5 3 -5 7 -2 3 4
13 1 21 -6 13 -10 15 -9 10 4 -8 20 6 46 16 30 4 -6 2 -11 -5 -11 -7 0 -10 -2
-7 -5 3 -3 13 -3 22 1 14 5 14 9 4 22 -12 14 -11 14 10 1 12 -8 22 -16 22 -19
0 -3 10 -6 23 -7 21 -2 21 -1 3 13 -11 8 -15 14 -9 14 7 0 15 -5 18 -10 4 -6
15 -8 26 -5 10 4 19 2 19 -4 0 -5 11 -8 25 -5 26 5 34 -9 13 -22 -7 -5 -9 -2
-4 7 4 8 1 5 -8 -5 -13 -16 -16 -16 -21 -5 -3 8 -16 15 -28 16 -21 2 -21 1 3
-12 24 -13 24 -14 3 -12 -13 1 -23 5 -23 9 0 3 -9 6 -20 5 -11 -1 -20 -5 -20
-9 0 -4 -4 -8 -9 -8 -6 0 -8 9 -6 20 4 19 3 19 -21 4 -28 -19 -29 -20 -8 -28
8 -3 12 -2 9 4 -3 6 -4 10 -1 10 3 0 10 -10 17 -21 9 -17 8 -20 -3 -14 -7 3
-5 0 5 -8 12 -10 14 -17 8 -22 -6 -3 -11 0 -11 7 0 9 -3 9 -10 -2 -6 -10 -10
-11 -10 -2 0 6 -5 12 -10 12 -5 0 -9 -5 -7 -11 1 -6 -3 -13 -8 -15 -6 -2 -11
4 -12 15 -1 14 4 18 22 17 16 -2 22 1 18 10 -3 8 -9 12 -13 9 -5 -3 -10 -2
-13 2 -2 5 -2 2 -1 -4 2 -7 0 -12 -4 -12 -25 4 -34 -2 -23 -14 6 -8 8 -17 4
-20 -3 -4 -11 3 -18 16 -6 12 -16 21 -22 20 -5 -1 -9 9 -9 23 1 13 6 24 10 23
16 -2 24 24 15 48 -6 16 -5 22 1 18 6 -3 10 -13 10 -21z m295 14 c5 4 5 1 1
-5 -10 -18 -23 -16 -30 3 -5 13 -4 14 7 6 8 -7 18 -8 22 -4z m40 -6 c1 -4 5
-18 9 -31 6 -18 10 -21 17 -10 11 18 12 32 1 25 -5 -3 -9 1 -9 9 0 19 24 1 32
-24 3 -9 15 -17 27 -18 20 -2 21 0 7 10 -9 7 -21 23 -28 37 l-12 25 18 -23
c15 -19 21 -20 33 -10 12 11 12 11 1 -4 -15 -20 -2 -25 17 -6 7 7 12 9 12 4 0
-4 -7 -14 -15 -23 -14 -14 -14 -17 1 -34 9 -11 13 -19 9 -19 -5 0 -4 -5 3 -12
15 -15 16 -32 2 -23 -18 11 -31 -5 -20 -25 7 -13 7 -21 0 -25 -5 -3 -10 1 -10
9 0 18 -36 40 -50 31 -5 -3 -23 1 -39 10 -32 16 -74 10 -49 -7 10 -8 10 -9 -2
-5 -21 5 -19 30 3 33 22 3 36 14 18 14 -7 0 -10 4 -7 9 3 5 -2 15 -12 22 -16
13 -16 13 -2 -5 12 -16 12 -18 1 -11 -10 6 -12 4 -6 -5 6 -9 4 -11 -5 -5 -9 6
-11 4 -5 -5 6 -9 4 -11 -5 -5 -9 6 -11 4 -5 -4 6 -10 3 -11 -12 -2 -16 8 -24
6 -40 -8 -18 -17 -21 -17 -30 -2 -11 18 -6 44 8 36 10 -7 59 39 59 54 0 6 -6
9 -12 7 -7 -1 -10 -1 -5 1 4 3 5 10 1 16 -3 7 3 2 14 -10 11 -12 23 -19 26
-15 4 3 4 -2 1 -13 -6 -18 -5 -18 13 2 16 18 21 20 26 8 3 -8 11 -15 17 -15 8
0 8 4 2 13 -11 13 -14 51 -4 41 3 -3 6 -9 6 -12z m-530 -2 c3 -5 1 -10 -4 -10
-6 0 -11 5 -11 10 0 6 2 10 4 10 3 0 8 -4 11 -10z m960 0 c3 -5 1 -10 -4 -10
-6 0 -11 5 -11 10 0 6 2 10 4 10 3 0 8 -4 11 -10z m265 -40 c0 -5 -7 -7 -15
-4 -8 4 -12 10 -9 15 6 11 24 2 24 -11z m19 -11 c-9 -6 -10 -9 -2 -9 6 0 11
-9 10 -20 -2 -27 -22 -19 -20 8 2 40 3 43 14 36 8 -4 7 -9 -2 -15z m-1851 -26
c9 -15 19 -18 70 -25 6 -1 12 -5 12 -10 0 -5 5 -6 10 -3 6 3 10 1 10 -5 0 -7
-7 -10 -15 -7 -8 4 -17 2 -20 -3 -4 -6 -11 -10 -17 -10 -7 0 -7 5 1 14 9 10 8
15 -3 19 -9 4 -18 1 -22 -5 -5 -7 -11 -5 -20 7 -13 17 -14 16 -23 -9 -6 -14
-13 -26 -17 -26 -3 0 -3 7 0 15 3 9 -1 18 -9 21 -11 5 -12 11 -4 25 5 11 7 24
3 30 -4 8 0 8 14 0 12 -6 25 -19 30 -28z m436 4 c5 12 9 14 18 5 9 -9 7 -15
-7 -26 -18 -13 -17 -14 7 -11 20 2 25 -1 21 -12 -5 -12 -7 -12 -14 -1 -7 10
-11 10 -17 0 -6 -8 -13 -1 -25 23 -11 22 -22 33 -29 29 -7 -5 -8 -3 -3 6 6 10
12 8 26 -8 15 -19 18 -20 23 -5z m1387 16 c0 -5 2 -18 5 -30 2 -15 -3 -26 -15
-33 -26 -13 -31 -13 -31 5 0 8 -4 15 -10 15 -5 0 -9 -5 -7 -11 1 -6 -5 -14
-13 -16 -13 -4 -13 -3 0 6 9 7 10 11 3 11 -6 0 -15 -5 -18 -11 -5 -6 -11 -5
-18 5 -12 15 -37 9 -40 -10 -1 -5 -16 -9 -34 -9 -18 0 -38 -6 -44 -12 -9 -9
-16 -7 -32 8 -16 15 -18 22 -9 31 13 13 54 19 46 7 -2 -4 2 -10 8 -13 7 -3 4
-4 -7 -1 -27 6 -53 -10 -30 -18 9 -4 13 -3 10 3 -4 6 4 9 17 7 18 -1 22 2 20
17 -3 16 -1 18 10 9 15 -12 48 -13 48 -2 0 4 14 6 32 4 28 -4 29 -3 13 9 -15
11 -15 13 -2 13 9 0 18 -6 21 -13 5 -13 36 -9 34 4 -2 17 3 23 12 17 8 -5 7
-12 -2 -23 -7 -10 -8 -14 -4 -10 5 4 16 2 25 -5 14 -11 14 -10 2 6 -11 14 -11
17 0 18 10 0 11 2 2 6 -7 2 -13 9 -13 14 0 11 20 12 21 2z m-881 -24 c0 -5 -5
-9 -11 -9 -5 0 -7 6 -3 13 4 6 3 8 -1 4 -16 -14 -13 -33 5 -33 10 0 18 3 18 6
-2 19 3 30 12 25 6 -3 5 -15 -2 -31 -8 -18 -14 -21 -20 -12 -6 11 -10 11 -16
0 -6 -9 -12 -6 -20 12 -9 21 -8 27 6 35 18 10 32 6 32 -10z m-440 0 c0 6 9 11
20 11 11 0 20 -5 20 -11 0 -6 -7 -9 -15 -6 -8 4 -17 2 -20 -3 -9 -14 -43 -8
-38 7 4 10 9 11 19 2 10 -8 14 -8 14 0z m234 -5 c3 -8 2 -12 -4 -9 -6 3 -10
10 -10 16 0 14 7 11 14 -7z m-93 -8 c7 4 9 3 5 -4 -3 -5 0 -13 6 -15 8 -4 9
-6 2 -6 -7 -1 -20 7 -31 17 -10 9 -13 13 -6 9 6 -5 18 -5 24 -1z m-603 -33 c0
-10 3 -26 7 -36 5 -13 3 -16 -8 -11 -19 7 -28 39 -14 53 15 15 16 14 15 -6z
m462 7 c0 -5 -2 -10 -4 -10 -3 0 -8 5 -11 10 -3 6 -1 10 4 10 6 0 11 -4 11
-10z m80 1 c0 -5 -7 -12 -16 -15 -14 -5 -15 -4 -4 9 14 17 20 19 20 6z m480
-1 c0 -5 -5 -10 -11 -10 -5 0 -7 5 -4 10 3 6 8 10 11 10 2 0 4 -4 4 -10z m239
-3 c8 -10 7 -14 -4 -14 -8 0 -15 6 -15 14 0 7 2 13 4 13 2 0 9 -6 15 -13z
m231 -8 c-13 -8 -13 -11 3 -20 20 -12 23 -31 3 -23 -21 8 -28 34 -15 51 7 7
14 11 18 8 3 -3 -1 -10 -9 -16z m-1425 -30 c11 -17 -1 -21 -15 -4 -8 9 -8 15
-2 15 6 0 14 -5 17 -11z m875 1 c0 -5 -4 -10 -10 -10 -5 0 -10 5 -10 10 0 6 5
10 10 10 6 0 10 -4 10 -10z"/>
<path d="M1460 2359 c0 -3 10 -9 22 -12 17 -5 19 -9 10 -20 -7 -8 -9 -17 -5
-21 4 -4 8 -19 9 -34 2 -44 4 -48 12 -36 4 5 17 10 30 10 12 0 22 4 21 9 0 6
-7 9 -14 7 -18 -3 -39 34 -25 43 8 5 8 11 1 19 -7 9 -7 16 2 25 6 7 8 12 2 11
-5 -2 -12 -1 -15 0 -15 6 -50 6 -50 -1z m54 -50 c-3 -5 -10 -7 -15 -3 -5 3 -7
10 -3 15 3 5 10 7 15 3 5 -3 7 -10 3 -15z m4 -40 c9 -12 9 -16 -1 -16 -7 0
-14 9 -14 20 -1 11 -1 18 0 16 2 -2 8 -11 15 -20z"/>
<path d="M1463 2154 c4 -7 0 -14 -8 -18 -19 -7 -19 -30 1 -46 8 -8 14 -9 12
-4 -1 5 3 19 10 30 9 18 9 24 -5 35 -9 8 -14 9 -10 3z m11 -29 c-4 -8 -11 -15
-16 -15 -6 0 -5 6 2 15 7 8 14 15 16 15 2 0 1 -7 -2 -15z"/>
<path d="M1430 2060 c0 -5 5 -10 11 -10 5 0 7 5 4 10 -3 6 -8 10 -11 10 -2 0
-4 -4 -4 -10z"/>
<path d="M1474 2040 c0 -13 4 -16 10 -10 7 7 7 13 0 20 -6 6 -10 3 -10 -10z"/>
<path d="M1440 1980 c10 -6 11 -10 3 -10 -7 0 -12 -3 -11 -7 1 -5 -5 -20 -15
-34 -10 -14 -15 -34 -11 -43 7 -19 13 -20 34 -5 12 9 11 10 -5 4 -17 -5 -17
-3 4 19 14 15 21 26 17 26 -5 0 -3 7 4 15 10 12 10 18 0 30 -7 8 -18 15 -24
15 -6 0 -4 -5 4 -10z m12 -33 c-7 -8 -9 -16 -6 -20 3 -3 -4 -11 -16 -17 -23
-13 -24 -13 10 37 8 12 16 20 19 18 2 -3 -1 -11 -7 -18z"/>
<path d="M1398 1846 c-19 -14 -25 -32 -8 -21 16 10 33 -5 21 -19 -8 -9 -6 -13
5 -13 10 0 14 7 11 19 -3 11 0 18 9 18 19 0 18 16 -2 24 -19 7 -15 8 -36 -8z
m32 0 c0 -3 -4 -8 -10 -11 -5 -3 -10 -1 -10 4 0 6 5 11 10 11 6 0 10 -2 10 -4z"/>
<path d="M1404 1747 c16 -12 16 -14 -5 -41 -12 -16 -24 -40 -25 -54 -3 -23 -2
-23 12 -6 14 18 14 18 8 -1 -4 -14 -1 -13 9 5 17 27 25 29 38 8 6 -9 9 -9 9
-1 0 6 -5 15 -10 18 -6 4 -7 12 -3 18 4 7 8 17 8 22 0 11 -38 45 -51 45 -4 0
0 -6 10 -13z m26 -53 c-6 -6 -8 -13 -5 -15 2 -3 -5 -5 -15 -6 -24 -2 -25 2 -2
32 11 15 19 19 24 12 4 -6 3 -16 -2 -23z"/>
<path d="M1409 1693 c-13 -16 -12 -17 4 -4 9 7 17 15 17 17 0 8 -8 3 -21 -13z"/>
<path d="M1366 1588 c3 -5 10 -6 15 -3 13 9 11 12 -6 12 -8 0 -12 -4 -9 -9z"/>
<path d="M1348 1514 c-3 -5 -4 -22 -3 -37 3 -21 0 -27 -10 -23 -7 2 -16 -1
-19 -9 -2 -7 2 -16 10 -19 10 -4 12 -2 8 6 -4 6 -3 8 4 4 9 -5 10 -44 2 -66
-2 -3 -2 -9 -1 -13 1 -4 -6 -10 -14 -13 -11 -5 -12 -11 -5 -24 6 -12 6 -20 0
-22 -6 -2 -1 -9 11 -16 12 -8 18 -9 15 -3 -4 5 2 14 11 20 11 6 13 11 5 11 -8
0 -10 5 -5 13 8 12 9 17 12 38 0 5 6 7 13 3 7 -4 8 -3 4 4 -4 6 -14 8 -23 5
-14 -5 -13 -3 2 20 10 15 22 24 31 20 8 -3 14 0 14 7 0 6 -5 8 -11 5 -18 -11
-6 29 14 45 17 14 17 16 -5 29 -21 13 -22 13 -9 -3 24 -29 3 -30 -22 -1 -13
16 -26 24 -29 19z m30 -31 c11 -23 10 -32 -10 -68 -16 -29 -17 -29 -14 -5 1
14 6 31 10 38 4 7 2 12 -6 12 -9 0 -9 3 2 10 13 9 13 11 0 20 -9 6 -11 10 -3
10 7 0 16 -8 21 -17z m-23 -141 c-2 -9 -4 -18 -5 -19 -2 -2 -3 -7 -4 -12 0 -5
-4 -12 -7 -15 -5 -6 -4 41 1 54 1 3 2 9 1 13 -1 5 3 6 8 3 5 -3 8 -14 6 -24z"/>
<path d="M1305 1230 c-1 -24 2 -27 16 -20 9 5 20 6 24 2 4 -4 2 3 -6 15 -20
33 -34 34 -34 3z"/>
<path d="M705 2308 c4 -10 3 -18 -2 -18 -4 0 -14 -10 -22 -22 -11 -19 -9 -19
15 4 23 22 26 30 16 40 -11 11 -12 10 -7 -4z"/>
<path d="M1535 2150 c-4 -6 -10 -8 -14 -6 -4 3 -8 0 -8 -7 0 -7 -2 -18 -4 -26
-2 -7 2 -16 10 -19 10 -3 12 0 7 13 -4 11 0 25 10 36 10 11 14 19 11 19 -3 0
-9 -5 -12 -10z"/>
<path d="M1500 2076 c0 -2 8 -10 18 -17 15 -13 16 -12 3 4 -13 16 -21 21 -21
13z"/>
<path d="M1444 1603 c3 -3 -2 -12 -12 -20 -12 -10 -8 -9 16 2 38 18 39 20 11
22 -12 1 -19 -1 -15 -4z"/>
<path d="M567 1573 c-10 -9 -9 -23 1 -23 5 0 9 7 9 15 0 17 -1 18 -10 8z"/>
<path d="M486 1201 c-4 -5 -2 -12 3 -15 5 -4 12 -2 15 3 4 5 2 12 -3 15 -5 4
-12 2 -15 -3z"/>
<path d="M1304 1169 c-3 -5 -11 -6 -17 -2 -7 3 -4 -3 6 -14 15 -17 15 -21 4
-26 -8 -3 -19 -1 -24 4 -7 7 -12 5 -16 -5 -4 -10 3 -22 19 -33 23 -15 24 -18
10 -29 -15 -11 -15 -12 1 -18 15 -6 13 -10 -12 -31 -27 -22 -24 -31 8 -26 4 0
7 -3 7 -7 0 -5 6 -9 13 -9 8 0 12 14 11 41 0 23 4 47 9 54 7 9 5 17 -7 25 -17
12 -16 15 9 45 15 18 25 32 23 33 -28 6 -39 6 -44 -2z m25 -16 c-6 -7 -15 -10
-20 -7 -13 8 -3 21 15 21 12 0 13 -4 5 -14z m-34 -41 c-3 -3 2 -13 11 -23 10
-11 12 -19 4 -24 -5 -3 -7 -11 -4 -17 4 -7 2 -8 -5 -4 -9 6 -9 11 -1 21 9 11
7 17 -9 27 -25 15 -27 25 -6 25 8 0 13 -3 10 -5z m11 -99 c-2 -9 -11 -17 -20
-19 -17 -2 -17 -2 0 17 21 23 23 23 20 2z"/>
<path d="M1226 925 c3 -7 12 -16 19 -19 9 -3 12 0 9 9 -3 7 -12 16 -19 19 -9
3 -12 0 -9 -9z"/>
<path d="M1254 872 c3 -6 -1 -15 -10 -20 -9 -5 -12 -12 -7 -15 5 -3 14 3 21
13 9 14 9 21 0 26 -6 4 -8 3 -4 -4z"/>
<path d="M1393 813 c0 -9 4 -10 14 -2 7 6 13 12 13 14 0 1 -6 2 -13 2 -8 0
-14 -6 -14 -14z"/>
<path d="M1347 914 c-7 -8 3 -34 13 -34 9 0 8 26 -1 35 -3 3 -8 2 -12 -1z"/>
<path d="M1815 800 c-3 -5 -1 -10 4 -10 6 0 11 5 11 10 0 6 -2 10 -4 10 -3 0
-8 -4 -11 -10z"/>
<path d="M2176 802 c-3 -5 1 -9 9 -9 8 0 12 4 9 9 -3 4 -7 8 -9 8 -2 0 -6 -4
-9 -8z"/>
<path d="M2235 780 c3 -5 8 -10 11 -10 2 0 4 5 4 10 0 6 -5 10 -11 10 -5 0 -7
-4 -4 -10z"/>
<path d="M2304 624 c2 -11 -2 -25 -8 -33 -8 -11 -8 -13 2 -7 6 4 12 3 12 -3 0
-5 -5 -13 -10 -16 -6 -4 -8 -10 -5 -15 3 -5 -3 -14 -12 -19 -17 -11 -17 -11 0
-22 14 -8 16 -14 6 -25 -6 -7 -15 -12 -19 -9 -4 3 -14 -2 -21 -11 -11 -13 -11
-15 2 -14 27 4 35 0 36 -20 1 -11 -2 -18 -6 -15 -5 2 -16 -4 -25 -14 -17 -18
-16 -20 1 -30 10 -6 12 -11 6 -11 -7 0 -13 -4 -13 -9 0 -5 8 -8 18 -6 9 2 19
4 21 4 2 1 -3 9 -12 19 -16 17 -10 43 9 44 17 1 40 23 39 38 -1 8 4 21 9 29 8
11 8 13 -1 8 -6 -4 -14 -3 -17 2 -3 5 1 11 9 15 8 3 15 11 15 18 0 9 -3 9 -10
-2 -5 -8 -12 -11 -16 -7 -4 4 2 18 14 30 12 13 19 26 16 30 -4 4 -1 15 7 24 7
10 9 15 4 10 -4 -4 -19 2 -31 14 -21 19 -22 20 -20 3z m31 -43 c-1 -11 -9 -29
-19 -40 -10 -11 -15 -25 -11 -33 6 -10 5 -10 -5 -1 -11 10 -11 15 0 28 7 8 9
15 5 15 -4 0 -3 6 4 13 6 8 9 24 6 36 -3 18 -1 20 9 12 7 -6 12 -20 11 -30z
m-20 -119 c-2 -9 -4 -20 -4 -24 -1 -5 -6 -8 -12 -8 -5 0 -8 4 -4 9 3 5 1 13
-5 16 -8 5 -7 11 1 21 14 17 28 10 24 -14z"/>
<path d="M2295 471 c-3 -5 -2 -12 3 -15 5 -3 9 1 9 9 0 17 -3 19 -12 6z"/>
<path d="M2289 263 c-1 -5 -1 -12 0 -17 1 -4 -4 -16 -11 -25 -12 -14 -11 -14
4 -3 9 7 16 22 15 33 -1 19 -6 26 -8 12z"/>
<path d="M2124 165 c-12 -9 -14 -14 -6 -15 8 0 10 -5 6 -12 -6 -10 -4 -10 7
-2 8 6 26 10 41 9 23 -2 26 1 17 12 -7 7 -14 11 -17 8 -3 -3 -10 0 -17 5 -8 6
-18 5 -31 -5z m30 -3 c3 -5 -1 -9 -9 -9 -8 0 -12 4 -9 9 3 4 7 8 9 8 2 0 6 -4
9 -8z"/>
<path d="M1857 159 c-9 -6 -21 -8 -26 -4 -5 3 -8 -3 -6 -12 1 -10 8 -17 14
-15 16 3 13 -9 -5 -23 -15 -10 -14 -12 7 -10 18 2 23 7 21 21 -4 17 -1 16 21
-5 l26 -23 26 28 c14 15 23 20 19 11 -8 -21 9 -22 26 -2 12 15 11 16 -10 19
-6 0 -15 8 -20 16 -6 9 -10 10 -10 3 0 -6 -9 -10 -19 -8 -15 3 -18 -1 -14 -13
3 -12 -1 -10 -14 5 -14 17 -22 20 -36 12z m20 -6 c-10 -9 25 -32 40 -26 7 3
11 8 8 12 -2 4 2 8 9 8 11 0 12 -4 3 -18 -6 -10 -15 -15 -19 -13 -4 3 -8 0 -8
-7 0 -7 -9 -3 -21 9 -11 12 -24 20 -30 17 -5 -4 -9 -2 -9 4 0 5 6 12 13 14 18
8 21 8 14 0z"/>
<path d="M2005 161 c-3 -6 -4 -12 -1 -12 17 -4 26 -7 29 -9 9 -7 36 -6 31 2
-3 5 -9 7 -12 4 -3 -3 -13 1 -23 10 -11 10 -19 12 -24 5z"/>
<path d="M1696 142 c-8 -7 14 -32 28 -32 6 0 4 5 -4 10 -13 8 -13 10 1 10 9 0
20 -7 23 -16 3 -8 10 -13 15 -10 5 4 11 1 13 -6 3 -9 6 -9 12 0 6 10 -6 17
-19 10 -2 -2 -10 6 -18 16 -14 19 -41 29 -51 18z"/>
<path d="M1102 183 c-6 -2 -10 -9 -6 -14 12 -19 -8 -30 -26 -14 -12 11 -20 13
-25 6 -3 -6 -4 -12 -1 -12 17 -4 26 -7 29 -9 1 -1 16 -3 33 -4 30 -2 31 -1 22
26 -6 15 -11 28 -11 27 -1 0 -8 -3 -15 -6z m9 -36 c-10 -9 -11 -8 -5 6 3 10 9
15 12 12 3 -3 0 -11 -7 -18z"/>
<path d="M513 151 c-7 -11 -8 -23 -2 -32 7 -11 13 -10 31 10 13 13 18 21 11
17 -6 -3 -16 0 -20 9 -7 12 -10 12 -20 -4z m21 -22 c-3 -5 -10 -7 -15 -3 -5 3
-7 10 -3 15 3 5 10 7 15 3 5 -3 7 -10 3 -15z"/>
<path d="M637 157 c-5 -13 -12 -15 -31 -8 -31 12 -39 4 -20 -23 8 -13 12 -25
9 -28 -3 -3 1 -8 9 -11 9 -4 13 -1 10 7 -3 8 5 12 26 12 21 0 29 -4 26 -12 -3
-8 0 -11 8 -8 13 5 18 29 10 54 -4 13 -6 13 -14 0 -7 -12 -11 -10 -18 9 -7 20
-10 21 -15 8z m-8 -22 c13 0 26 -7 28 -15 4 -13 3 -13 -6 0 -10 13 -12 13 -21
0 -9 -13 -10 -13 -10 0 0 11 -2 12 -8 3 -6 -9 -11 -6 -21 8 -10 17 -10 20 1
13 7 -5 24 -9 37 -9z"/>
<path d="M795 160 c3 -5 8 -10 11 -10 2 0 4 5 4 10 0 6 -5 10 -11 10 -5 0 -7
-4 -4 -10z"/>
<path d="M985 140 c-6 -10 13 -35 21 -27 14 14 12 34 -3 34 -7 0 -16 -3 -18
-7z"/>
<path d="M733 124 c0 -7 11 -24 24 -36 22 -21 24 -21 17 -3 -7 19 -6 19 12 3
19 -16 20 -16 32 2 11 18 8 22 -14 19 -4 0 -11 5 -15 13 -7 11 -9 11 -9 -1 0
-11 -4 -10 -23 2 -20 13 -24 13 -24 1z m32 -22 c-3 -3 -11 0 -18 7 -9 10 -8
11 6 5 10 -3 15 -9 12 -12z m45 -4 c0 -4 -4 -8 -9 -8 -6 0 -12 4 -15 8 -3 5 1
9 9 9 8 0 15 -4 15 -9z"/>
<path d="M630 80 c0 -5 5 -10 10 -10 6 0 10 5 10 10 0 6 -4 10 -10 10 -5 0
-10 -4 -10 -10z"/>
<path d="M1204 133 c5 -33 40 -36 48 -4 2 9 -6 15 -23 16 -18 1 -26 -3 -25
-12z m35 -10 c-6 -7 -15 -10 -20 -7 -13 8 -3 21 15 21 12 0 13 -4 5 -14z"/>
<path d="M1465 140 c-11 -16 -23 -26 -27 -24 -4 3 -8 0 -8 -6 0 -6 -5 -8 -12
-4 -7 4 -8 3 -4 -4 9 -15 46 2 46 21 0 7 4 6 10 -3 8 -13 11 -13 24 0 12 12
12 18 2 32 -11 15 -14 14 -31 -12z m29 -11 c-3 -5 -10 -7 -15 -3 -5 3 -7 10
-3 15 3 5 10 7 15 3 5 -3 7 -10 3 -15z"/>
<path d="M1526 163 c-3 -3 3 -17 14 -31 11 -13 18 -28 15 -32 -3 -4 2 -10 10
-13 10 -4 12 -1 8 11 -6 15 -5 15 10 3 9 -7 14 -17 11 -22 -3 -5 0 -9 5 -9 14
0 14 13 0 27 -9 9 -7 12 10 10 13 -1 20 -6 17 -14 -7 -18 11 -26 33 -14 19 11
22 34 6 48 -4 4 -5 2 -1 -4 4 -7 3 -13 -2 -13 -5 0 -12 10 -16 23 -5 18 -8 20
-16 7 -8 -13 -11 -11 -16 8 -6 19 -8 20 -18 7 -10 -13 -14 -13 -38 -1 -15 8
-29 12 -32 9z m62 -28 c14 0 27 -7 29 -15 4 -13 3 -13 -6 0 -10 13 -12 13 -21
0 -9 -13 -10 -13 -10 0 0 10 -3 11 -8 4 -5 -8 -14 -3 -27 15 -17 24 -18 25 0
11 10 -8 29 -15 43 -15z m68 -47 c-6 -4 -15 -8 -21 -8 -5 0 -4 4 4 9 9 6 10
11 2 15 -6 4 -11 11 -11 17 0 5 8 1 18 -8 12 -12 14 -21 8 -25z"/>
<path d="M395 130 c-4 -6 -3 -16 3 -22 6 -6 12 -6 17 2 4 6 3 16 -3 22 -6 6
-12 6 -17 -2z"/>
<path d="M1378 2458 c6 -6 18 -8 28 -6 14 3 12 5 -9 10 -19 3 -25 2 -19 -4z"/>
<path d="M780 2437 c0 -5 11 -6 25 -3 17 4 24 2 21 -6 -1 -7 -1 -9 2 -5 2 4
10 3 17 -3 9 -8 14 -7 18 4 4 11 1 13 -10 9 -10 -4 -14 -2 -10 3 3 6 -8 10
-29 10 -18 -1 -34 -5 -34 -9z"/>
<path d="M1209 2431 c6 -10 7 -21 4 -25 -3 -3 -3 -6 0 -6 3 0 11 10 18 21 8
15 8 19 0 15 -6 -4 -11 -2 -11 3 0 6 -5 11 -10 11 -7 0 -7 -6 -1 -19z"/>
<path d="M1491 2434 c0 -11 3 -14 6 -6 3 7 2 16 -1 19 -3 4 -6 -2 -5 -13z"/>
<path d="M1452 2425 c4 -5 0 -14 -10 -21 -9 -8 -12 -14 -5 -14 6 0 15 5 18 10
5 8 11 7 21 -1 8 -6 14 -7 14 -3 0 5 -10 15 -22 23 -13 7 -20 10 -16 6z"/>
<path d="M706 2401 c9 -9 34 -9 34 -1 0 5 -9 8 -20 7 -10 -1 -17 -3 -14 -6z"/>
<path d="M751 2394 c0 -11 3 -14 6 -6 3 7 2 16 -1 19 -3 4 -6 -2 -5 -13z"/>
<path d="M1508 2403 c7 -3 16 -2 19 1 4 3 -2 6 -13 5 -11 0 -14 -3 -6 -6z"/>
<path d="M1546 2398 c3 -5 10 -6 15 -3 13 9 11 12 -6 12 -8 0 -12 -4 -9 -9z"/>
<path d="M1585 2359 c-4 -6 -5 -12 -2 -15 2 -3 7 2 10 11 7 17 1 20 -8 4z"/>
<path d="M1610 2289 c0 -5 -4 -7 -10 -4 -5 3 -10 4 -10 1 0 -3 9 -10 19 -15
16 -9 18 -8 14 9 -6 21 -13 27 -13 9z"/>
<path d="M626 2282 c-3 -5 1 -9 9 -9 8 0 12 4 9 9 -3 4 -7 8 -9 8 -2 0 -6 -4
-9 -8z"/>
<path d="M621 2244 c0 -11 3 -14 6 -6 3 7 2 16 -1 19 -3 4 -6 -2 -5 -13z"/>
<path d="M1629 2223 c-13 -16 -12 -17 4 -4 9 7 17 15 17 17 0 8 -8 3 -21 -13z"/>
<path d="M1576 2211 c-4 -5 3 -7 14 -4 23 6 26 13 6 13 -8 0 -17 -4 -20 -9z"/>
<path d="M593 2125 c0 -8 4 -12 9 -9 5 3 6 10 3 15 -9 13 -12 11 -12 -6z"/>
<path d="M1597 2123 c-10 -9 -9 -23 1 -23 5 0 9 7 9 15 0 17 -1 18 -10 8z"/>
<path d="M663 2078 c-4 -7 -8 -22 -10 -33 -1 -11 1 -14 3 -7 3 6 9 10 12 8 4
-2 8 7 8 20 2 27 -1 30 -13 12z"/>
<path d="M1574 2083 c3 -3 17 -7 32 -9 14 -1 23 0 20 3 -3 4 -18 8 -32 9 -14
2 -24 0 -20 -3z"/>
<path d="M1546 2014 c-3 -8 -2 -12 4 -9 6 3 10 -1 10 -9 0 -8 4 -17 10 -21 5
-3 5 7 -1 25 -12 34 -15 36 -23 14z"/>
<path d="M556 2007 c3 -10 9 -15 12 -12 3 3 0 11 -7 18 -10 9 -11 8 -5 -6z"/>
<path d="M1540 1981 c0 -6 4 -13 10 -16 6 -3 7 1 4 9 -7 18 -14 21 -14 7z"/>
<path d="M559 1908 c-5 -18 -6 -38 -1 -34 7 8 12 36 6 36 -2 0 -4 -1 -5 -2z"/>
<path d="M1571 1884 c0 -11 3 -14 6 -6 3 7 2 16 -1 19 -3 4 -6 -2 -5 -13z"/>
<path d="M510 1839 c0 -5 5 -7 10 -4 6 3 10 8 10 11 0 2 -4 4 -10 4 -5 0 -10
-5 -10 -11z"/>
<path d="M552 1845 c4 -4 3 -14 -4 -22 -8 -11 -7 -12 6 -7 19 7 21 20 4 30 -7
4 -10 4 -6 -1z"/>
<path d="M1555 1841 c-3 -5 -2 -12 3 -15 5 -3 9 1 9 9 0 17 -3 19 -12 6z"/>
<path d="M593 1817 c-13 -5 -23 -13 -23 -17 0 -13 29 -20 35 -9 4 5 11 7 16 4
11 -7 12 5 1 21 -5 8 -14 8 -29 1z m17 -11 c0 -3 -4 -8 -10 -11 -5 -3 -10 -1
-10 4 0 6 5 11 10 11 6 0 10 -2 10 -4z"/>
<path d="M1546 1798 c3 -4 9 -8 15 -8 5 0 9 4 9 8 0 5 -7 9 -15 9 -8 0 -12 -4
-9 -9z"/>
<path d="M516 1742 c-2 -4 -1 -14 4 -22 7 -11 9 -9 7 8 -1 24 -3 26 -11 14z"/>
<path d="M1525 1719 c-3 -4 2 -6 10 -5 21 3 28 13 10 13 -9 0 -18 -4 -20 -8z"/>
<path d="M536 1703 c-6 -14 -5 -15 5 -6 7 7 10 15 7 18 -3 3 -9 -2 -12 -12z"/>
<path d="M1475 1680 c3 -5 8 -10 11 -10 2 0 4 5 4 10 0 6 -5 10 -11 10 -5 0
-7 -4 -4 -10z"/>
<path d="M1500 1666 c0 -2 7 -6 15 -10 8 -3 15 -1 15 4 0 6 -7 10 -15 10 -8 0
-15 -2 -15 -4z"/>
<path d="M1549 1643 c-13 -16 -12 -17 4 -4 16 13 21 21 13 21 -2 0 -10 -8 -17
-17z"/>
<path d="M495 1600 c-4 -6 -1 -9 7 -8 7 2 12 -2 11 -9 -2 -7 4 -10 13 -6 8 3
14 6 12 7 -2 1 -10 7 -20 14 -11 9 -18 10 -23 2z"/>
<path d="M1480 1560 c-9 -6 -10 -10 -3 -10 6 0 15 5 18 10 8 12 4 12 -15 0z"/>
<path d="M1496 1542 c-3 -4 4 -9 15 -9 23 -2 25 3 4 10 -8 4 -16 3 -19 -1z"/>
<path d="M1470 1479 c0 -5 5 -7 10 -4 6 3 10 8 10 11 0 2 -4 4 -10 4 -5 0 -10
-5 -10 -11z"/>
<path d="M475 1471 c-9 -15 15 -25 28 -12 9 9 7 10 -7 5 -13 -5 -17 -4 -12 4
4 7 5 12 2 12 -3 0 -7 -4 -11 -9z"/>
<path d="M466 1402 c-3 -4 4 -9 15 -9 23 -2 25 3 4 10 -8 4 -16 3 -19 -1z"/>
<path d="M1460 1400 c8 -5 20 -10 25 -10 6 0 3 5 -5 10 -8 5 -19 10 -25 10 -5
0 -3 -5 5 -10z"/>
<path d="M499 1371 c10 -6 11 -13 2 -30 -10 -18 -9 -20 5 -14 12 4 15 3 10 -5
-4 -7 -2 -12 4 -12 7 0 10 7 7 15 -4 8 -2 17 4 21 17 10 5 27 -22 31 -16 2
-20 0 -10 -6z m22 -24 c-10 -9 -11 -8 -5 6 3 10 9 15 12 12 3 -3 0 -11 -7 -18z"/>
<path d="M455 1349 c-4 -6 -5 -12 -2 -15 2 -3 7 2 10 11 7 17 1 20 -8 4z"/>
<path d="M476 1343 c-6 -14 -5 -15 5 -6 7 7 10 15 7 18 -3 3 -9 -2 -12 -12z"/>
<path d="M1452 1321 c-11 -7 -11 -9 0 -14 9 -3 15 1 15 9 0 8 -1 14 -1 14 -1
0 -7 -4 -14 -9z"/>
<path d="M1456 1282 c-2 -4 -1 -14 4 -22 7 -11 9 -9 7 8 -1 24 -3 26 -11 14z"/>
<path d="M435 1271 c-3 -5 -2 -12 3 -15 5 -3 9 1 9 9 0 17 -3 19 -12 6z"/>
<path d="M1430 1251 c0 -6 4 -12 8 -15 5 -3 9 1 9 9 0 8 -4 15 -9 15 -4 0 -8
-4 -8 -9z"/>
<path d="M440 1231 c0 -6 4 -13 10 -16 6 -3 7 1 4 9 -7 18 -14 21 -14 7z"/>
<path d="M1465 1200 c10 -11 20 -20 23 -20 3 0 -3 9 -13 20 -10 11 -20 20 -23
20 -3 0 3 -9 13 -20z"/>
<path d="M1427 1186 c-4 -10 -1 -13 8 -9 8 3 12 9 9 14 -7 12 -11 11 -17 -5z"/>
<path d="M458 1168 c10 -13 10 -17 0 -20 -8 -3 -7 -6 4 -10 20 -8 18 17 -2 35
-12 10 -12 9 -2 -5z"/>
<path d="M1446 1158 c3 -5 10 -6 15 -3 13 9 11 12 -6 12 -8 0 -12 -4 -9 -9z"/>
<path d="M422 1137 c10 -8 15 -17 11 -21 -4 -4 1 -4 10 0 20 7 20 7 -13 23
-22 11 -23 10 -8 -2z"/>
<path d="M1387 1127 c-3 -7 -2 -19 3 -26 5 -10 8 -9 13 2 3 7 2 19 -3 26 -5
10 -8 9 -13 -2z"/>
<path d="M457 1107 c-15 -11 -14 -12 12 -12 23 -1 28 2 19 12 -13 16 -10 16
-31 0z"/>
<path d="M1455 1109 c-4 -6 -5 -12 -2 -15 2 -3 7 2 10 11 7 17 1 20 -8 4z"/>
<path d="M1415 1099 c-4 -6 -5 -12 -2 -15 2 -3 7 2 10 11 7 17 1 20 -8 4z"/>
<path d="M1414 1062 c4 -3 14 -7 22 -8 9 -1 13 0 10 4 -4 3 -14 7 -22 8 -9 1
-13 0 -10 -4z"/>
<path d="M1439 1028 c-4 -12 -5 -57 0 -53 6 6 10 55 4 55 -1 0 -3 -1 -4 -2z"/>
<path d="M445 1009 c-4 -6 -5 -12 -2 -15 2 -3 7 2 10 11 7 17 1 20 -8 4z"/>
<path d="M420 991 c0 -7 -5 -9 -12 -5 -7 5 -8 3 -3 -5 5 -9 10 -10 18 -2 6 6
8 14 4 18 -4 3 -7 1 -7 -6z"/>
<path d="M1390 980 c-12 -7 -10 -9 7 -7 12 0 19 5 17 9 -6 10 -6 10 -24 -2z"/>
<path d="M1459 948 c-5 -16 -4 -46 2 -42 4 2 7 13 6 24 -1 17 -5 26 -8 18z"/>
<path d="M1412 921 c-11 -7 -11 -9 0 -14 9 -3 15 1 15 9 0 8 -1 14 -1 14 -1 0
-7 -4 -14 -9z"/>
<path d="M356 873 c-6 -14 -5 -15 5 -6 7 7 10 15 7 18 -3 3 -9 -2 -12 -12z"/>
<path d="M1675 869 c-4 -6 -5 -12 -2 -15 2 -3 7 2 10 11 7 17 1 20 -8 4z"/>
<path d="M1466 858 c3 -5 10 -6 15 -3 13 9 11 12 -6 12 -8 0 -12 -4 -9 -9z"/>
<path d="M1586 862 c-2 -4 4 -8 14 -8 10 0 16 4 14 8 -3 4 -9 8 -14 8 -5 0
-11 -4 -14 -8z"/>
<path d="M1725 860 c-3 -6 1 -7 9 -4 18 7 21 14 7 14 -6 0 -13 -4 -16 -10z"/>
<path d="M1845 860 c-3 -6 1 -7 9 -4 18 7 21 14 7 14 -6 0 -13 -4 -16 -10z"/>
<path d="M2025 860 c-3 -6 1 -7 9 -4 18 7 21 14 7 14 -6 0 -13 -4 -16 -10z"/>
<path d="M2125 860 c-3 -6 1 -7 9 -4 18 7 21 14 7 14 -6 0 -13 -4 -16 -10z"/>
<path d="M400 840 c0 -5 5 -10 11 -10 5 0 8 -4 4 -9 -3 -5 0 -13 6 -17 7 -4 9
-3 5 4 -3 6 -2 13 4 17 5 3 10 12 10 18 0 7 -4 6 -10 -3 -6 -10 -10 -11 -10
-2 0 6 -4 12 -10 12 -5 0 -10 -4 -10 -10z"/>
<path d="M1985 840 c-3 -5 -2 -10 4 -10 5 0 13 5 16 10 3 6 2 10 -4 10 -5 0
-13 -4 -16 -10z"/>
<path d="M2235 840 c-16 -7 -17 -9 -3 -9 9 -1 20 4 23 9 7 11 7 11 -20 0z"/>
<path d="M2295 840 c-3 -5 -1 -10 4 -10 6 0 11 5 11 10 0 6 -2 10 -4 10 -3 0
-8 -4 -11 -10z"/>
<path d="M2336 842 c-3 -4 4 -9 15 -9 23 -2 25 3 4 10 -8 4 -16 3 -19 -1z"/>
<path d="M350 825 c0 -7 30 -13 34 -7 3 4 -4 9 -15 9 -10 1 -19 0 -19 -2z"/>
<path d="M1910 806 c0 -2 6 -9 13 -15 10 -8 14 -7 14 4 0 8 -6 15 -14 15 -7 0
-13 -2 -13 -4z"/>
<path d="M2374 793 c1 -7 6 -16 11 -20 4 -4 5 -3 1 4 -3 6 2 16 11 22 16 9 16
10 -3 8 -12 0 -21 -7 -20 -14z"/>
<path d="M361 754 c0 -11 3 -14 6 -6 3 7 2 16 -1 19 -3 4 -6 -2 -5 -13z"/>
<path d="M2390 755 c0 -5 5 -17 10 -25 5 -8 10 -10 10 -5 0 6 -5 17 -10 25 -5
8 -10 11 -10 5z"/>
<path d="M2453 731 c0 -11 5 -18 9 -15 4 3 5 11 1 19 -7 21 -12 19 -10 -4z"/>
<path d="M2453 685 c0 -8 4 -12 9 -9 5 3 6 10 3 15 -9 13 -12 11 -12 -6z"/>
<path d="M2412 676 c7 -8 15 -12 17 -11 5 6 -10 25 -20 25 -5 0 -4 -6 3 -14z"/>
<path d="M310 666 c0 -2 7 -7 16 -10 8 -3 12 -2 9 4 -6 10 -25 14 -25 6z"/>
<path d="M2395 660 c3 -5 8 -10 11 -10 2 0 4 5 4 10 0 6 -5 10 -11 10 -5 0 -7
-4 -4 -10z"/>
<path d="M2456 647 c3 -10 9 -15 12 -12 3 3 0 11 -7 18 -10 9 -11 8 -5 -6z"/>
<path d="M2435 631 c-3 -5 -2 -12 3 -15 5 -3 9 1 9 9 0 17 -3 19 -12 6z"/>
<path d="M279 593 c-13 -16 -12 -17 4 -4 9 7 17 15 17 17 0 8 -8 3 -21 -13z"/>
<path d="M350 580 c0 -6 5 -8 10 -5 19 11 4 -38 -16 -52 -18 -13 -18 -13 4
-10 12 2 28 9 34 15 7 7 17 12 23 12 17 0 13 36 -5 36 -8 1 -23 4 -32 9 -11 4
-18 3 -18 -5z m44 -19 c3 -4 -4 -17 -16 -27 -13 -12 -18 -13 -12 -4 5 8 9 18
10 23 3 15 4 17 8 17 3 0 7 -4 10 -9z"/>
<path d="M320 555 c-7 -8 -17 -12 -24 -8 -6 3 -8 2 -3 -2 11 -13 45 -16 52 -5
4 6 -1 7 -12 3 -16 -6 -16 -5 -4 10 7 9 11 17 8 17 -2 0 -10 -7 -17 -15z"/>
<path d="M2435 560 c-3 -5 -1 -10 4 -10 6 0 11 5 11 10 0 6 -2 10 -4 10 -3 0
-8 -4 -11 -10z"/>
<path d="M350 487 c0 -7 6 -19 13 -26 10 -11 7 -12 -13 -6 -19 5 -21 4 -10 -4
13 -9 13 -14 1 -32 -11 -19 -11 -23 3 -31 9 -5 13 -15 10 -21 -4 -7 1 -4 11 5
15 14 17 22 7 42 -9 19 -8 27 3 36 11 9 12 17 4 31 -11 22 -29 25 -29 6z m24
-13 c3 -8 2 -12 -4 -9 -6 3 -10 10 -10 16 0 14 7 11 14 -7z m-8 -80 c2 -12 -1
-13 -12 -3 -7 6 -11 16 -8 21 7 11 17 3 20 -18z"/>
<path d="M2433 475 c0 -8 4 -12 9 -9 4 3 8 9 8 15 0 5 -4 9 -8 9 -5 0 -9 -7
-9 -15z"/>
<path d="M315 470 c-3 -6 1 -7 9 -4 18 7 21 14 7 14 -6 0 -13 -4 -16 -10z"/>
<path d="M2395 470 c-3 -5 -3 -10 2 -10 4 0 2 -4 -5 -9 -11 -7 -10 -9 3 -14 9
-4 14 -3 10 2 -3 5 1 12 7 14 10 4 10 6 0 6 -7 1 -10 6 -7 11 3 6 4 10 1 10
-3 0 -8 -4 -11 -10z"/>
<path d="M299 432 c-13 -15 -12 -16 3 -4 13 10 17 10 21 0 4 -9 6 -9 6 -1 2
20 -16 24 -30 5z"/>
<path d="M2390 401 c0 -6 4 -13 10 -16 6 -3 7 1 4 9 -7 18 -14 21 -14 7z"/>
<path d="M286 358 c3 -4 9 -8 15 -8 5 0 9 4 9 8 0 5 -7 9 -15 9 -8 0 -12 -4
-9 -9z"/>
<path d="M2410 339 c0 -5 5 -7 10 -4 6 3 10 8 10 11 0 2 -4 4 -10 4 -5 0 -10
-5 -10 -11z"/>
<path d="M2340 275 c0 -8 2 -15 4 -15 2 0 6 7 10 15 3 8 1 15 -4 15 -6 0 -10
-7 -10 -15z"/>
<path d="M2356 254 c-8 -21 -8 -34 2 -34 4 0 8 11 8 25 2 29 -1 32 -10 9z"/>
<path d="M255 240 c-2 -3 5 -7 16 -7 10 -1 19 2 19 6 0 9 -29 10 -35 1z"/>
<path d="M2354 193 c-10 -7 -13 -13 -7 -13 7 0 15 5 18 10 4 6 10 8 15 5 5 -3
11 -2 14 3 8 13 -19 10 -40 -5z"/>
<path d="M385 188 c6 -15 22 -25 43 -29 4 0 13 -5 20 -11 9 -8 11 -7 6 6 -4 9
-12 15 -18 13 -6 -3 -21 5 -34 17 -18 16 -22 17 -17 4z"/>
<path d="M273 175 c0 -8 4 -12 9 -9 4 3 8 9 8 15 0 5 -4 9 -8 9 -5 0 -9 -7 -9
-15z"/>
<path d="M2310 170 c0 -5 5 -10 10 -10 6 0 10 5 10 10 0 6 -4 10 -10 10 -5 0
-10 -4 -10 -10z"/>
<path d="M2373 165 c0 -8 4 -12 9 -9 5 3 6 10 3 15 -9 13 -12 11 -12 -6z"/>
<path d="M2332 145 c4 -4 0 -14 -10 -22 -16 -12 -16 -13 2 -6 15 5 17 3 11 -8
-5 -8 -4 -11 0 -6 14 12 14 36 2 44 -7 3 -9 3 -5 -2z"/>
<path d="M310 100 c8 -5 20 -10 25 -10 6 0 3 5 -5 10 -8 5 -19 10 -25 10 -5 0
-3 -5 5 -10z"/>
<path d="M313 55 c0 -8 4 -12 9 -9 5 3 6 10 3 15 -9 13 -12 11 -12 -6z"/>
<path d="M358 38 c3 -13 7 -17 10 -10 2 7 8 10 13 6 5 -3 9 -3 9 0 0 3 -9 10
-19 15 -17 9 -18 8 -13 -11z"/>
<path d="M2285 47 c-15 -12 -16 -15 -4 -22 8 -5 11 -5 7 0 -4 4 0 14 10 21 23
18 11 18 -13 1z"/>
<path d="M845 40 c3 -5 0 -10 -7 -10 -10 0 -9 -3 2 -10 15 -9 56 17 45 29 -4
3 -10 -1 -15 -9 -7 -10 -10 -11 -10 -2 0 6 -5 12 -11 12 -5 0 -7 -4 -4 -10z"/>
<path d="M1322 38 c2 -5 6 -8 8 -7 3 1 16 -3 30 -10 23 -11 23 -11 7 2 -13 11
-15 16 -5 20 7 2 0 4 -15 4 -15 0 -26 -4 -25 -9z"/>
<path d="M2160 41 c0 -6 4 -12 8 -15 5 -3 9 1 9 9 0 8 -4 15 -9 15 -4 0 -8 -4
-8 -9z"/>
<path d="M2225 40 c3 -5 8 -10 11 -10 2 0 4 5 4 10 0 6 -5 10 -11 10 -5 0 -7
-4 -4 -10z"/>
<path d="M390 20 c-13 -8 -12 -10 3 -10 9 0 17 5 17 10 0 12 -1 12 -20 0z"/>
<path d="M556 13 c-6 -14 -5 -15 5 -6 7 7 10 15 7 18 -3 3 -9 -2 -12 -12z"/>
<path d="M1030 21 c0 -6 4 -13 10 -16 6 -3 7 1 4 9 -7 18 -14 21 -14 7z"/>
<path d="M1479 12 c-13 -15 -12 -16 3 -4 13 10 17 10 21 0 4 -9 6 -9 6 -1 2
20 -16 24 -30 5z"/>
<path d="M1630 21 c0 -6 4 -13 10 -16 6 -3 7 1 4 9 -7 18 -14 21 -14 7z"/>
<path d="M1766 17 c3 -10 9 -15 12 -12 3 3 0 11 -7 18 -10 9 -11 8 -5 -6z"/>
<path d="M2079 12 c-13 -15 -12 -16 3 -4 13 10 17 10 21 0 4 -9 6 -9 6 -1 2
20 -16 24 -30 5z"/>
<path d="M2135 19 c-4 -6 -4 -13 -1 -16 3 -4 6 -1 6 6 0 7 5 9 12 5 7 -4 8 -3
4 4 -9 15 -13 15 -21 1z"/>
<path d="M2214 22 c3 -5 0 -13 -6 -15 -9 -4 -10 -6 -1 -6 17 -1 25 16 12 25
-7 4 -9 3 -5 -4z"/>
</g>
</svg>
